<svg width="193" height="33" viewBox="0 0 193 33" fill="none" xmlns="http://www.w3.org/2000/svg">
<g clip-path="url(#clip0_88_10712)">
<path d="M14.967 1.0698C15.5342 -0.356601 17.4659 -0.356599 18.0331 1.0698L21.3806 9.48867C21.6198 10.09 22.1605 10.5009 22.7811 10.5529L31.47 11.2816C32.9421 11.405 33.5391 13.3268 32.4174 14.3318L25.7974 20.2635C25.3246 20.6873 25.118 21.3521 25.2625 21.9855L27.285 30.8548C27.6277 32.3574 26.0649 33.5452 24.8045 32.74L17.3655 27.9871C16.8342 27.6476 16.1659 27.6476 15.6346 27.9871L8.19555 32.74C6.93515 33.5452 5.37234 32.3574 5.71501 30.8548L7.73757 21.9855C7.88203 21.3521 7.67553 20.6873 7.20269 20.2635L0.582554 14.3318C-0.539086 13.3268 0.0578621 11.405 1.53003 11.2816L10.2191 10.5529C10.8397 10.5009 11.3803 10.09 11.6194 9.48867L14.967 1.0698Z" fill="#FF9500"/>
<path d="M54.9553 1.0698C55.5224 -0.356601 57.4542 -0.356599 58.0214 1.0698L61.3688 9.48867C61.6081 10.09 62.1488 10.5009 62.7693 10.5529L71.4583 11.2816C72.9304 11.405 73.5274 13.3268 72.4057 14.3318L65.7857 20.2635C65.3129 20.6873 65.1063 21.3521 65.2508 21.9855L67.2733 30.8548C67.6159 32.3574 66.0532 33.5452 64.7928 32.74L57.3538 27.9871C56.8224 27.6476 56.1542 27.6476 55.6229 27.9871L48.1838 32.74C46.9234 33.5452 45.3606 32.3574 45.7033 30.8548L47.7258 21.9855C47.8703 21.3521 47.6638 20.6873 47.191 20.2635L40.5708 14.3318C39.4492 13.3268 40.0461 11.405 41.5183 11.2816L50.2073 10.5529C50.828 10.5009 51.3686 10.09 51.6077 9.48867L54.9553 1.0698Z" fill="#FF9500"/>
<path d="M94.9435 1.0698C95.5107 -0.356601 97.4425 -0.356599 98.0097 1.0698L101.357 9.48867C101.596 10.09 102.137 10.5009 102.758 10.5529L111.447 11.2816C112.919 11.405 113.516 13.3268 112.394 14.3318L105.774 20.2635C105.301 20.6873 105.095 21.3521 105.239 21.9855L107.262 30.8548C107.604 32.3574 106.041 33.5452 104.781 32.74L97.3421 27.9871C96.8107 27.6476 96.1425 27.6476 95.6111 27.9871L88.1721 32.74C86.9117 33.5452 85.3489 32.3574 85.6916 30.8548L87.7141 21.9855C87.8586 21.3521 87.6521 20.6873 87.1793 20.2635L80.5591 14.3318C79.4375 13.3268 80.0344 11.405 81.5066 11.2816L90.1956 10.5529C90.8163 10.5009 91.3569 10.09 91.596 9.48867L94.9435 1.0698Z" fill="#FF9500"/>
<path d="M134.932 1.0698C135.499 -0.356601 137.431 -0.356599 137.998 1.0698L141.345 9.48867C141.584 10.09 142.125 10.5009 142.746 10.5529L151.435 11.2816C152.907 11.405 153.504 13.3268 152.382 14.3318L145.762 20.2635C145.289 20.6873 145.083 21.3521 145.227 21.9855L147.25 30.8548C147.592 32.3574 146.03 33.5452 144.769 32.74L137.33 27.9871C136.799 27.6476 136.131 27.6476 135.599 27.9871L128.16 32.74C126.9 33.5452 125.337 32.3574 125.68 30.8548L127.702 21.9855C127.847 21.3521 127.64 20.6873 127.167 20.2635L120.547 14.3318C119.426 13.3268 120.022 11.405 121.495 11.2816L130.184 10.5529C130.804 10.5009 131.345 10.09 131.584 9.48867L134.932 1.0698Z" fill="#FF9500"/>
<path d="M174.92 1.0698C175.487 -0.356601 177.419 -0.356599 177.986 1.0698L181.333 9.48867C181.573 10.09 182.113 10.5009 182.734 10.5529L191.423 11.2816C192.895 11.405 193.492 13.3268 192.37 14.3318L185.75 20.2635C185.278 20.6873 185.071 21.3521 185.215 21.9855L187.238 30.8548C187.581 32.3574 186.018 33.5452 184.757 32.74L177.318 27.9871C176.787 27.6476 176.119 27.6476 175.587 27.9871L168.148 32.74C166.888 33.5452 165.325 32.3574 165.668 30.8548L167.69 21.9855C167.835 21.3521 167.628 20.6873 167.156 20.2635L160.535 14.3318C159.414 13.3268 160.011 11.405 161.483 11.2816L170.172 10.5529C170.793 10.5009 171.333 10.09 171.572 9.48867L174.92 1.0698Z" fill="#FF9500"/>
</g>
<defs>
<clipPath id="clip0_88_10712">
<rect width="192.953" height="33" fill="white"/>
</clipPath>
</defs>
</svg>
