<svg width="40" height="40" viewBox="0 0 40 40" fill="none" xmlns="http://www.w3.org/2000/svg">
<g id="person">
<mask id="mask0_1_100190" style="mask-type:alpha" maskUnits="userSpaceOnUse" x="0" y="0" width="40" height="40">
<rect id="Bounding box" width="40" height="40" fill="#D9D9D9"/>
</mask>
<g mask="url(#mask0_1_100190)">
<path id="person_2" d="M19.9984 19.9998C18.165 19.9998 16.5956 19.3471 15.29 18.0415C13.9845 16.7359 13.3317 15.1665 13.3317 13.3332C13.3317 11.4998 13.9845 9.93039 15.29 8.62484C16.5956 7.31928 18.165 6.6665 19.9984 6.6665C21.8317 6.6665 23.4011 7.31928 24.7067 8.62484C26.0123 9.93039 26.665 11.4998 26.665 13.3332C26.665 15.1665 26.0123 16.7359 24.7067 18.0415C23.4011 19.3471 21.8317 19.9998 19.9984 19.9998ZM6.66504 33.3332V28.6665C6.66504 27.7221 6.90809 26.854 7.39421 26.0623C7.88032 25.2707 8.52615 24.6665 9.33171 24.2498C11.0539 23.3887 12.8039 22.7429 14.5817 22.3123C16.3595 21.8818 18.165 21.6665 19.9984 21.6665C21.8317 21.6665 23.6373 21.8818 25.415 22.3123C27.1928 22.7429 28.9428 23.3887 30.665 24.2498C31.4706 24.6665 32.1164 25.2707 32.6025 26.0623C33.0887 26.854 33.3317 27.7221 33.3317 28.6665V33.3332H6.66504ZM9.99837 29.9998H29.9984V28.6665C29.9984 28.3609 29.922 28.0832 29.7692 27.8332C29.6164 27.5832 29.415 27.3887 29.165 27.2498C27.665 26.4998 26.1512 25.9373 24.6234 25.5623C23.0956 25.1873 21.5539 24.9998 19.9984 24.9998C18.4428 24.9998 16.9012 25.1873 15.3734 25.5623C13.8456 25.9373 12.3317 26.4998 10.8317 27.2498C10.5817 27.3887 10.3803 27.5832 10.2275 27.8332C10.0748 28.0832 9.99837 28.3609 9.99837 28.6665V29.9998ZM19.9984 16.6665C20.915 16.6665 21.6998 16.3401 22.3525 15.6873C23.0053 15.0346 23.3317 14.2498 23.3317 13.3332C23.3317 12.4165 23.0053 11.6318 22.3525 10.979C21.6998 10.3262 20.915 9.99984 19.9984 9.99984C19.0817 9.99984 18.297 10.3262 17.6442 10.979C16.9914 11.6318 16.665 12.4165 16.665 13.3332C16.665 14.2498 16.9914 15.0346 17.6442 15.6873C18.297 16.3401 19.0817 16.6665 19.9984 16.6665Z" fill="black"/>
</g>
</g>
</svg>
