<svg width="18" height="17" viewBox="0 0 18 17" fill="none" xmlns="http://www.w3.org/2000/svg">
<path d="M2.98215 12.7584C2.15637 11.9319 1.52252 10.9929 1.08061 9.9416C0.63885 8.89042 0.417969 7.78481 0.417969 6.62477C0.417969 5.46473 0.63885 4.35897 1.08061 3.30749C1.52252 2.256 2.15637 1.31692 2.98215 0.490234L3.82413 1.33222C3.11551 2.04085 2.56896 2.85125 2.18449 3.76342C1.80002 4.67559 1.60779 5.62922 1.60779 6.62432C1.60779 7.61941 1.80002 8.57305 2.18449 9.48522C2.56896 10.3974 3.11551 11.2078 3.82413 11.9164L2.98215 12.7584ZM5.0628 10.6777C4.52379 10.1374 4.11241 9.51876 3.82866 8.8219C3.54506 8.12503 3.40325 7.39258 3.40325 6.62454C3.40325 5.85666 3.54506 5.12421 3.82866 4.42719C4.11241 3.73017 4.52379 3.11141 5.0628 2.57089L5.90479 3.41287C5.46755 3.85011 5.13962 4.34389 4.921 4.89421C4.70238 5.44453 4.59307 6.02123 4.59307 6.62432C4.59307 7.22741 4.70238 7.80411 4.921 8.35443C5.13962 8.90475 5.46755 9.39852 5.90479 9.83576L5.0628 10.6777ZM8.43776 16.1752V8.49623C8.04228 8.36174 7.72302 8.12337 7.47998 7.78112C7.23709 7.43901 7.11564 7.05342 7.11564 6.62432C7.11564 6.0642 7.309 5.5907 7.69573 5.20382C8.08262 4.81709 8.55611 4.62372 9.11623 4.62372C9.67635 4.62372 10.1499 4.81709 10.5367 5.20382C10.9235 5.5907 11.1168 6.0642 11.1168 6.62432C11.1168 7.05342 10.9954 7.43901 10.7525 7.78112C10.5094 8.12337 10.1902 8.36174 9.79471 8.49623V16.1752H8.43776ZM13.1697 10.6777L12.3277 9.83576C12.7649 9.39852 13.0928 8.90475 13.3115 8.35443C13.5301 7.80411 13.6394 7.22741 13.6394 6.62432C13.6394 6.02123 13.5301 5.44453 13.3115 4.89421C13.0928 4.34389 12.7649 3.85011 12.3277 3.41287L13.1697 2.57089C13.7087 3.11126 14.1201 3.72987 14.4038 4.42674C14.6874 5.12361 14.8292 5.85606 14.8292 6.62409C14.8292 7.39197 14.6874 8.12442 14.4038 8.82144C14.1201 9.51846 13.7087 10.1372 13.1697 10.6777ZM15.2503 12.7584L14.4083 11.9164C15.117 11.2078 15.6635 10.3974 16.048 9.48522C16.4324 8.57305 16.6247 7.61941 16.6247 6.62432C16.6247 5.62922 16.4324 4.67559 16.048 3.76342C15.6635 2.85125 15.117 2.04085 14.4083 1.33222L15.2503 0.490234C16.0761 1.31677 16.7099 2.2557 17.1519 3.30703C17.5936 4.35821 17.8145 5.46383 17.8145 6.62387C17.8145 7.78391 17.5936 8.88967 17.1519 9.94115C16.7099 10.9926 16.0761 11.9317 15.2503 12.7584Z" fill="#1C1B1F"/>
</svg>
