<svg width="32" height="33" viewBox="0 0 32 33" fill="none" xmlns="http://www.w3.org/2000/svg">
<g id="call">
<mask id="mask0_1_113954" style="mask-type:alpha" maskUnits="userSpaceOnUse" x="0" y="0" width="32" height="33">
<rect id="Bounding box" y="0.5" width="32" height="32" fill="#D9D9D9"/>
</mask>
<g mask="url(#mask0_1_113954)">
<path id="call_2" d="M24.6463 29.2133C21.9725 29.2133 19.3308 28.5995 16.7211 27.3718C14.1115 26.1441 11.7372 24.4039 9.59812 22.1512C7.45908 19.8985 5.80666 17.398 4.64088 14.6498C3.4751 11.9015 2.89221 9.11944 2.89221 6.30359C2.89221 5.89811 3.02055 5.5602 3.27724 5.28988C3.53393 5.01956 3.85478 4.8844 4.23981 4.8844H9.43769C9.73716 4.8844 10.0045 4.9914 10.2398 5.20541C10.4751 5.41941 10.6142 5.67284 10.657 5.96569L11.4912 10.6963C11.534 11.0567 11.5233 11.3609 11.4591 11.6086C11.3949 11.8564 11.2773 12.0704 11.1062 12.2507L7.99384 15.5621C8.42165 16.3956 8.92967 17.2009 9.51791 17.9781C10.1061 18.7553 10.7532 19.5043 11.4591 20.2252C12.1222 20.9235 12.8174 21.5711 13.5447 22.1681C14.2719 22.765 15.042 23.3113 15.8548 23.8069L18.8709 20.6306C19.0634 20.4279 19.3147 20.2758 19.6249 20.1745C19.9351 20.0731 20.2399 20.0449 20.5393 20.09L24.9672 21.0361C25.2666 21.1262 25.5126 21.2895 25.7051 21.5261C25.8977 21.7626 25.9939 22.0273 25.9939 22.3201V27.7942C25.9939 28.1996 25.8656 28.5375 25.6089 28.8079C25.3522 29.0782 25.0313 29.2133 24.6463 29.2133ZM6.77458 12.994L8.89224 10.7639L8.34678 7.58762H5.49115C5.59811 8.51121 5.74784 9.42355 5.94035 10.3246C6.13287 11.2257 6.41094 12.1155 6.77458 12.994ZM18.2613 25.0909C19.0955 25.4739 19.9458 25.778 20.8121 26.0033C21.6784 26.2285 22.55 26.375 23.4271 26.4425V23.469L20.411 22.827L18.2613 25.0909Z" fill="#252525"/>
</g>
</g>
</svg>
