<svg width="37" height="38" viewBox="0 0 37 38" fill="none" xmlns="http://www.w3.org/2000/svg">
<g clip-path="url(#clip0_1_41715)">
<path d="M-14.9033 -1.31885H61.9152V39.112H-14.9033" fill="#B31942"/>
<path d="M-14.9033 3.34521H61.9152H-14.9033ZM61.9152 9.56534H-14.9033H61.9152ZM-14.9033 15.7855H61.9152H-14.9033ZM61.9152 22.0056H-14.9033H61.9152ZM-14.9033 28.2257H61.9152H-14.9033ZM61.9152 34.4458H-14.9033H61.9152Z" fill="black"/>
<path d="M-14.9033 3.34521H61.9152M61.9152 9.56534H-14.9033M-14.9033 15.7855H61.9152M61.9152 22.0056H-14.9033M-14.9033 28.2257H61.9152M61.9152 34.4458H-14.9033" stroke="white" stroke-width="3.80119"/>
<path d="M-14.9033 -1.31885H15.8241V20.4516H-14.9033" fill="#0A3161"/>
<path d="M0.44974 1.78955L1.18096 4.04001L-0.733398 2.64915H1.63288L-0.28148 4.04001L0.44974 1.78955Z" fill="white"/>
<path d="M0.44974 6.14453L1.18096 8.39499L-0.733398 7.00413H1.63288L-0.28148 8.39499L0.44974 6.14453Z" fill="white"/>
<path d="M0.44974 10.499L1.18096 12.7495L-0.733398 11.3586H1.63288L-0.28148 12.7495L0.44974 10.499Z" fill="white"/>
<path d="M0.44974 14.8506L1.18096 17.101L-0.733398 15.7102H1.63288L-0.28148 17.101L0.44974 14.8506Z" fill="white"/>
<path d="M3.02445 -0.385742L3.75567 1.86472L1.84131 0.473858H4.20758L2.29323 1.86472L3.02445 -0.385742Z" fill="white"/>
<path d="M3.02445 3.96924L3.75567 6.2197L1.84131 4.82884H4.20758L2.29323 6.2197L3.02445 3.96924Z" fill="white"/>
<path d="M3.02445 8.32373L3.75567 10.5742L1.84131 9.18333H4.20758L2.29323 10.5742L3.02445 8.32373Z" fill="white"/>
<path d="M3.02445 12.6753L3.75567 14.9258L1.84131 13.5349H4.20758L2.29323 14.9258L3.02445 12.6753Z" fill="white"/>
<path d="M3.02591 17.0298L3.75713 19.2802L1.84277 17.8894H4.20905L2.29469 19.2802L3.02591 17.0298Z" fill="white"/>
<path d="M5.58695 1.78955L6.31817 4.04001L4.40381 2.64915H6.77008L4.85573 4.04001L5.58695 1.78955Z" fill="white"/>
<path d="M5.58695 6.14453L6.31817 8.39499L4.40381 7.00413H6.77008L4.85573 8.39499L5.58695 6.14453Z" fill="white"/>
<path d="M5.58695 10.499L6.31817 12.7495L4.40381 11.3586H6.77008L4.85573 12.7495L5.58695 10.499Z" fill="white"/>
<path d="M5.58695 14.8506L6.31817 17.101L4.40381 15.7102H6.77008L4.85573 17.101L5.58695 14.8506Z" fill="white"/>
<path d="M8.13822 -0.385742L8.86944 1.86472L6.95508 0.473858H9.32135L7.407 1.86472L8.13822 -0.385742Z" fill="white"/>
<path d="M8.13822 3.96924L8.86944 6.2197L6.95508 4.82884H9.32135L7.407 6.2197L8.13822 3.96924Z" fill="white"/>
<path d="M8.13822 8.32373L8.86944 10.5742L6.95508 9.18333H9.32135L7.407 10.5742L8.13822 8.32373Z" fill="white"/>
<path d="M8.13822 12.6753L8.86944 14.9258L6.95508 13.5349H9.32135L7.407 14.9258L8.13822 12.6753Z" fill="white"/>
<path d="M8.14115 17.0298L8.87237 19.2802L6.95801 17.8894H9.32428L7.40993 19.2802L8.14115 17.0298Z" fill="white"/>
<path d="M10.7071 1.78955L11.4383 4.04001L9.52393 2.64915H11.8902L9.97584 4.04001L10.7071 1.78955Z" fill="white"/>
<path d="M10.7071 6.14453L11.4383 8.39499L9.52393 7.00413H11.8902L9.97584 8.39499L10.7071 6.14453Z" fill="white"/>
<path d="M10.7071 10.499L11.4383 12.7495L9.52393 11.3586H11.8902L9.97584 12.7495L10.7071 10.499Z" fill="white"/>
<path d="M10.7071 14.8506L11.4383 17.101L9.52393 15.7102H11.8902L9.97584 17.101L10.7071 14.8506Z" fill="white"/>
<path d="M13.2696 -0.38623L14.0008 1.86423L12.0864 0.473369H14.4527L12.5383 1.86423L13.2696 -0.38623Z" fill="white"/>
<path d="M13.2696 3.96875L14.0008 6.21921L12.0864 4.82835H14.4527L12.5383 6.21921L13.2696 3.96875Z" fill="white"/>
<path d="M13.2696 8.32324L14.0008 10.5737L12.0864 9.18284H14.4527L12.5383 10.5737L13.2696 8.32324Z" fill="white"/>
<path d="M13.2696 12.6748L14.0008 14.9253L12.0864 13.5344H14.4527L12.5383 14.9253L13.2696 12.6748Z" fill="white"/>
<path d="M13.2657 17.0293L13.9969 19.2798L12.0825 17.8889H14.4488L12.5344 19.2798L13.2657 17.0293Z" fill="white"/>
</g>
<defs>
<clipPath id="clip0_1_41715">
<rect x="-14.9023" y="-1.31738" width="76.8185" height="40.4308" fill="white"/>
</clipPath>
</defs>
</svg>
