<svg width="20" height="28" viewBox="0 0 20 28" fill="none" xmlns="http://www.w3.org/2000/svg">
<path d="M9.95638 27.3542C7.60082 27.3542 5.6786 26.9819 4.18971 26.2375C2.70082 25.4931 1.95638 24.5319 1.95638 23.3542C1.95638 22.8208 2.11749 22.3264 2.43971 21.8708C2.76194 21.4153 3.21194 21.0208 3.78971 20.6875L5.88971 22.6542C5.68971 22.7431 5.47305 22.8431 5.23971 22.9542C5.00638 23.0653 4.82305 23.1986 4.68971 23.3542C4.9786 23.7097 5.64527 24.0208 6.68971 24.2875C7.73416 24.5542 8.82305 24.6875 9.95638 24.6875C11.0897 24.6875 12.1842 24.5542 13.2397 24.2875C14.2953 24.0208 14.9675 23.7097 15.2564 23.3542C15.1008 23.1764 14.9008 23.0319 14.6564 22.9208C14.4119 22.8097 14.1786 22.7097 13.9564 22.6208L16.023 20.6208C16.6453 20.9764 17.123 21.3819 17.4564 21.8375C17.7897 22.2931 17.9564 22.7986 17.9564 23.3542C17.9564 24.5319 17.2119 25.4931 15.723 26.2375C14.2342 26.9819 12.3119 27.3542 9.95638 27.3542ZM9.98971 20.0208C12.1897 18.3986 13.8453 16.7708 14.9564 15.1375C16.0675 13.5042 16.623 11.8653 16.623 10.2208C16.623 7.95417 15.9008 6.24306 14.4564 5.0875C13.0119 3.93194 11.5119 3.35417 9.95638 3.35417C8.40082 3.35417 6.90082 3.93194 5.45638 5.0875C4.01194 6.24306 3.28971 7.95417 3.28971 10.2208C3.28971 11.7097 3.83416 13.2597 4.92305 14.8708C6.01194 16.4819 7.70082 18.1986 9.98971 20.0208ZM9.95638 23.3542C6.82305 21.0431 4.48416 18.7986 2.93971 16.6208C1.39527 14.4431 0.623047 12.3097 0.623047 10.2208C0.623047 8.64306 0.90638 7.25972 1.47305 6.07083C2.03971 4.88194 2.76749 3.8875 3.65638 3.0875C4.54527 2.2875 5.54527 1.6875 6.65638 1.2875C7.76749 0.8875 8.86749 0.6875 9.95638 0.6875C11.0453 0.6875 12.1453 0.8875 13.2564 1.2875C14.3675 1.6875 15.3675 2.2875 16.2564 3.0875C17.1453 3.8875 17.873 4.88194 18.4397 6.07083C19.0064 7.25972 19.2897 8.64306 19.2897 10.2208C19.2897 12.3097 18.5175 14.4431 16.973 16.6208C15.4286 18.7986 13.0897 21.0431 9.95638 23.3542ZM9.95638 12.6875C10.6897 12.6875 11.3175 12.4264 11.8397 11.9042C12.3619 11.3819 12.623 10.7542 12.623 10.0208C12.623 9.2875 12.3619 8.65972 11.8397 8.1375C11.3175 7.61528 10.6897 7.35417 9.95638 7.35417C9.22305 7.35417 8.59527 7.61528 8.07305 8.1375C7.55082 8.65972 7.28971 9.2875 7.28971 10.0208C7.28971 10.7542 7.55082 11.3819 8.07305 11.9042C8.59527 12.4264 9.22305 12.6875 9.95638 12.6875Z" fill="#666666"/>
</svg>
