<svg width="24" height="34" viewBox="0 0 24 34" fill="none" xmlns="http://www.w3.org/2000/svg">
<path d="M12.0026 33.6654C9.05816 33.6654 6.65538 33.2001 4.79427 32.2695C2.93316 31.339 2.0026 30.1376 2.0026 28.6654C2.0026 27.9987 2.20399 27.3806 2.60677 26.8112C3.00955 26.2418 3.57205 25.7487 4.29427 25.332L6.91927 27.7904C6.66927 27.9015 6.39844 28.0265 6.10677 28.1654C5.8151 28.3043 5.58594 28.4709 5.41927 28.6654C5.78038 29.1098 6.61372 29.4987 7.91927 29.832C9.22483 30.1654 10.5859 30.332 12.0026 30.332C13.4193 30.332 14.7873 30.1654 16.1068 29.832C17.4262 29.4987 18.2665 29.1098 18.6276 28.6654C18.4332 28.4431 18.1832 28.2626 17.8776 28.1237C17.5721 27.9848 17.2804 27.8598 17.0026 27.7487L19.5859 25.2487C20.3637 25.6931 20.9609 26.2001 21.3776 26.7695C21.7943 27.339 22.0026 27.9709 22.0026 28.6654C22.0026 30.1376 21.072 31.339 19.2109 32.2695C17.3498 33.2001 14.947 33.6654 12.0026 33.6654ZM12.0443 24.4987C14.7943 22.4709 16.8637 20.4362 18.2526 18.3945C19.6415 16.3529 20.3359 14.3043 20.3359 12.2487C20.3359 9.41536 19.4332 7.27648 17.6276 5.83203C15.822 4.38759 13.947 3.66536 12.0026 3.66536C10.0582 3.66536 8.18316 4.38759 6.3776 5.83203C4.57205 7.27648 3.66927 9.41536 3.66927 12.2487C3.66927 14.1098 4.34983 16.0473 5.71094 18.0612C7.07205 20.0751 9.18316 22.2209 12.0443 24.4987ZM12.0026 28.6654C8.08594 25.7765 5.16233 22.9709 3.23177 20.2487C1.30122 17.5265 0.335938 14.8598 0.335938 12.2487C0.335938 10.2765 0.690104 8.54731 1.39844 7.0612C2.10677 5.57509 3.01649 4.33203 4.1276 3.33203C5.23872 2.33203 6.48872 1.58203 7.8776 1.08203C9.26649 0.582031 10.6415 0.332031 12.0026 0.332031C13.3637 0.332031 14.7387 0.582031 16.1276 1.08203C17.5165 1.58203 18.7665 2.33203 19.8776 3.33203C20.9887 4.33203 21.8984 5.57509 22.6068 7.0612C23.3151 8.54731 23.6693 10.2765 23.6693 12.2487C23.6693 14.8598 22.704 17.5265 20.7734 20.2487C18.8429 22.9709 15.9193 25.7765 12.0026 28.6654ZM12.0026 15.332C12.9193 15.332 13.704 15.0056 14.3568 14.3529C15.0095 13.7001 15.3359 12.9154 15.3359 11.9987C15.3359 11.082 15.0095 10.2973 14.3568 9.64453C13.704 8.99175 12.9193 8.66536 12.0026 8.66536C11.0859 8.66536 10.3012 8.99175 9.64844 9.64453C8.99566 10.2973 8.66927 11.082 8.66927 11.9987C8.66927 12.9154 8.99566 13.7001 9.64844 14.3529C10.3012 15.0056 11.0859 15.332 12.0026 15.332Z" fill="black"/>
</svg>
