<svg width="39" height="53" viewBox="0 0 39 53" fill="none" xmlns="http://www.w3.org/2000/svg">
<path d="M19.8321 52.6342C14.3352 52.6342 9.78229 51.9087 6.17328 50.4577C2.56427 49.0062 0.759766 46.6058 0.759766 43.2563C0.759766 39.9068 2.56543 37.5063 6.17675 36.0549C9.78806 34.6039 14.3422 33.8784 19.839 33.8784C25.3359 33.8784 29.8888 34.6039 33.4979 36.0549C37.1069 37.5063 38.9114 39.9068 38.9114 43.2563C38.9114 46.6058 37.1057 49.0062 33.4944 50.4577C29.8831 51.9087 25.329 52.6342 19.8321 52.6342ZM19.8356 47.0925C15.0827 47.0925 11.2977 46.5898 8.48069 45.5845C5.66368 44.5796 4.07045 43.1819 3.70101 41.3915C3.51952 41.658 3.39252 41.9598 3.32002 42.2969C3.24705 42.6345 3.21057 42.9543 3.21057 43.2563C3.21057 45.3344 4.72298 47.0084 7.74781 48.2784C10.7726 49.5484 14.8019 50.1834 19.8356 50.1834C24.8692 50.1834 28.8985 49.5484 31.9233 48.2784C34.9482 47.0084 36.4606 45.3344 36.4606 43.2563C36.4606 42.9543 36.4241 42.6345 36.3511 42.2969C36.2786 41.9598 36.1516 41.658 35.9701 41.3915C35.6007 43.1819 34.0075 44.5796 31.1904 45.5845C28.3734 46.5898 24.5885 47.0925 19.8356 47.0925ZM19.8356 44.6417C23.8995 44.6417 27.2245 44.2492 29.8106 43.4641C32.3967 42.679 33.6897 41.6861 33.6897 40.4854C33.6897 39.2848 32.3967 38.2919 29.8106 37.5068C27.2245 36.7217 23.8995 36.3292 19.8356 36.3292C15.7717 36.3292 12.4467 36.7217 9.86057 37.5068C7.27446 38.2919 5.9814 39.2848 5.9814 40.4854C5.9814 41.6861 7.27446 42.679 9.86057 43.4641C12.4467 44.2492 15.7717 44.6417 19.8356 44.6417ZM17.2781 30.7875V17.9994H12.1624L22.393 0.0957031V12.8838H27.5087L17.2781 30.7875Z" fill="#252525"/>
</svg>
