<svg width="21" height="22" viewBox="0 0 21 22" fill="none" xmlns="http://www.w3.org/2000/svg">
<g clip-path="url(#clip0_1_34487)">
<path d="M10.4993 1.65272C5.33589 1.65272 1.15077 5.83784 1.15077 11.0012C1.15077 16.1646 5.33589 20.3497 10.4993 20.3497C15.6626 20.3497 19.8478 16.1646 19.8478 11.0012C19.8373 5.84222 15.6583 1.66322 10.5001 1.65272H10.4993ZM10.4993 21.1626C4.88702 21.1626 0.337891 16.6135 0.337891 11.0012C0.337891 5.38897 4.88702 0.839844 10.4993 0.839844C16.1115 0.839844 20.6606 5.38897 20.6606 11.0012V11.0143C20.6606 16.6187 16.1176 21.1617 10.5133 21.1617L10.4993 21.1626Z" fill="#2EC4B6"/>
<path d="M10.5 21.5C4.70138 21.5 0 16.7986 0 11C0 5.20138 4.70138 0.5 10.5 0.5C16.2986 0.5 21 5.20138 21 11C20.9702 16.7873 16.2873 21.4702 10.5026 21.5H10.5ZM10.5 1.17725C5.075 1.17725 0.67725 5.575 0.67725 11C0.67725 16.425 5.075 20.8228 10.5 20.8228C15.925 20.8228 20.3228 16.425 20.3228 11C20.3193 5.57675 15.9233 1.18163 10.5009 1.17725H10.5ZM10.5 20.7545C5.15025 20.7545 0.812875 16.4171 0.812875 11.0674C0.812875 5.71762 5.15025 1.38025 10.5 1.38025C15.8497 1.38025 20.1871 5.71762 20.1871 11.0674C20.1871 16.4171 15.8497 20.7545 10.5 20.7545ZM10.5 1.99012C5.52388 1.99012 1.49012 6.02388 1.49012 11C1.49012 15.9761 5.52388 20.0099 10.5 20.0099C15.4761 20.0099 19.5099 15.9761 19.5099 11V10.9956C19.5099 6.02212 15.4779 1.99012 10.5044 1.99012H10.5Z" fill="#2EC4B6"/>
<path d="M15.8511 12.9645V12.996C15.8511 14.407 15.2906 15.7602 14.2929 16.7579C13.2952 17.7555 11.942 18.316 10.5311 18.316H10.4978H10.4996H10.4681C9.05714 18.316 7.70398 17.7555 6.70629 16.7579C5.70859 15.7602 5.14809 14.407 5.14809 12.996V12.9628V12.9645H15.8511ZM8.46697 9.17142V9.1793C8.46697 10.1855 7.65147 11.001 6.64522 11.001H6.63734C6.27565 11.001 5.92208 10.8938 5.62135 10.6928C5.32061 10.4919 5.08621 10.2063 4.9478 9.87213C4.80939 9.53797 4.77317 9.17027 4.84373 8.81553C4.9143 8.46078 5.08847 8.13493 5.34422 7.87918C5.59998 7.62342 5.92583 7.44925 6.28057 7.37869C6.63532 7.30812 7.00302 7.34434 7.33718 7.48275C7.67134 7.62117 7.95695 7.85556 8.15789 8.1563C8.35884 8.45703 8.46609 8.8106 8.46609 9.1723L8.46697 9.17142ZM16.258 9.17142C16.258 9.65644 16.0653 10.1216 15.7223 10.4645C15.3794 10.8075 14.9142 11.0002 14.4292 11.0002C13.9442 11.0002 13.4791 10.8075 13.1361 10.4645C12.7931 10.1216 12.6005 9.65644 12.6005 9.17142V9.16355C12.6005 8.1573 13.416 7.3418 14.4222 7.3418H14.4301C14.9119 7.35119 15.3713 7.54664 15.7122 7.8872C16.0531 8.22777 16.249 8.68703 16.2588 9.1688V9.17055L16.258 9.17142Z" fill="#2EC4B6"/>
</g>
<defs>
<clipPath id="clip0_1_34487">
<rect width="21" height="21" fill="white" transform="translate(0 0.5)"/>
</clipPath>
</defs>
</svg>
