<svg width="34" height="24" viewBox="0 0 34 24" fill="none" xmlns="http://www.w3.org/2000/svg">
<path d="M9.69214 21.9996C11.3915 21.9996 12.769 20.622 12.769 18.9226C12.769 17.2233 11.3915 15.8457 9.69214 15.8457C7.99281 15.8457 6.61523 17.2233 6.61523 18.9226C6.61523 20.622 7.99281 21.9996 9.69214 21.9996Z" stroke="#2EC4B6" stroke-width="2.30769" stroke-miterlimit="1.5" stroke-linecap="round" stroke-linejoin="round"/>
<path d="M25.0769 21.9996C26.7763 21.9996 28.1538 20.622 28.1538 18.9226C28.1538 17.2233 26.7763 15.8457 25.0769 15.8457C23.3775 15.8457 22 17.2233 22 18.9226C22 20.622 23.3775 21.9996 25.0769 21.9996Z" stroke="#2EC4B6" stroke-width="2.30769" stroke-miterlimit="1.5" stroke-linecap="round" stroke-linejoin="round"/>
<path d="M20.4614 18.9232V2.92308C20.4614 2.41328 20.0482 2 19.5383 2H2.92307C2.41327 2 2 2.41328 2 2.92308V18.0001C2 18.51 2.41327 18.9232 2.92307 18.9232H6.0769" stroke="#2EC4B6" stroke-width="2.30769" stroke-linecap="round"/>
<path d="M20.461 18.9238H12.8457" stroke="#2EC4B6" stroke-width="2.30769" stroke-linecap="round"/>
<path d="M20.4609 6.61523H29.0918C29.4566 6.61523 29.7872 6.83007 29.9353 7.16342L32.689 13.3593C32.7415 13.4774 32.7686 13.6051 32.7686 13.7342V17.9999C32.7686 18.5098 32.3553 18.923 31.8455 18.923H28.9224" stroke="#2EC4B6" stroke-width="2.30769" stroke-linecap="round"/>
<path d="M20.4609 18.9238H21.9994" stroke="#2EC4B6" stroke-width="2.30769" stroke-linecap="round"/>
</svg>
