<svg width="28" height="28" viewBox="0 0 28 28" fill="none" xmlns="http://www.w3.org/2000/svg">
<path d="M13.9954 27.3346C12.1732 27.3346 10.451 26.9846 8.82878 26.2846C7.20655 25.5846 5.78989 24.6291 4.57878 23.418C3.36766 22.2069 2.41211 20.7902 1.71211 19.168C1.01211 17.5457 0.662109 15.8235 0.662109 14.0013C0.662109 12.1569 1.01211 10.4291 1.71211 8.81797C2.41211 7.20686 3.36766 5.79575 4.57878 4.58464C5.78989 3.37352 7.20655 2.41797 8.82878 1.71797C10.451 1.01797 12.1732 0.667969 13.9954 0.667969C15.8399 0.667969 17.5677 1.01797 19.1788 1.71797C20.7899 2.41797 22.201 3.37352 23.4121 4.58464C24.6232 5.79575 25.5788 7.20686 26.2788 8.81797C26.9788 10.4291 27.3288 12.1569 27.3288 14.0013C27.3288 15.8235 26.9788 17.5457 26.2788 19.168C25.5788 20.7902 24.6232 22.2069 23.4121 23.418C22.201 24.6291 20.7899 25.5846 19.1788 26.2846C17.5677 26.9846 15.8399 27.3346 13.9954 27.3346ZM13.9954 24.6013C14.5732 23.8013 15.0732 22.968 15.4954 22.1013C15.9177 21.2346 16.2621 20.3124 16.5288 19.3346H11.4621C11.7288 20.3124 12.0732 21.2346 12.4954 22.1013C12.9177 22.968 13.4177 23.8013 13.9954 24.6013ZM10.5288 24.068C10.1288 23.3346 9.77878 22.5735 9.47878 21.7846C9.17878 20.9957 8.92878 20.1791 8.72878 19.3346H4.79544C5.43989 20.4457 6.24544 21.4124 7.21211 22.2346C8.17878 23.0569 9.28433 23.668 10.5288 24.068ZM17.4621 24.068C18.7066 23.668 19.8121 23.0569 20.7788 22.2346C21.7454 21.4124 22.551 20.4457 23.1954 19.3346H19.2621C19.0621 20.1791 18.8121 20.9957 18.5121 21.7846C18.2121 22.5735 17.8621 23.3346 17.4621 24.068ZM3.66211 16.668H8.19544C8.12878 16.2235 8.07878 15.7846 8.04544 15.3513C8.01211 14.918 7.99544 14.468 7.99544 14.0013C7.99544 13.5346 8.01211 13.0846 8.04544 12.6513C8.07878 12.218 8.12878 11.7791 8.19544 11.3346H3.66211C3.551 11.7791 3.46766 12.218 3.41211 12.6513C3.35655 13.0846 3.32878 13.5346 3.32878 14.0013C3.32878 14.468 3.35655 14.918 3.41211 15.3513C3.46766 15.7846 3.551 16.2235 3.66211 16.668ZM10.8621 16.668H17.1288C17.1954 16.2235 17.2454 15.7846 17.2788 15.3513C17.3121 14.918 17.3288 14.468 17.3288 14.0013C17.3288 13.5346 17.3121 13.0846 17.2788 12.6513C17.2454 12.218 17.1954 11.7791 17.1288 11.3346H10.8621C10.7954 11.7791 10.7454 12.218 10.7121 12.6513C10.6788 13.0846 10.6621 13.5346 10.6621 14.0013C10.6621 14.468 10.6788 14.918 10.7121 15.3513C10.7454 15.7846 10.7954 16.2235 10.8621 16.668ZM19.7954 16.668H24.3288C24.4399 16.2235 24.5232 15.7846 24.5788 15.3513C24.6343 14.918 24.6621 14.468 24.6621 14.0013C24.6621 13.5346 24.6343 13.0846 24.5788 12.6513C24.5232 12.218 24.4399 11.7791 24.3288 11.3346H19.7954C19.8621 11.7791 19.9121 12.218 19.9454 12.6513C19.9788 13.0846 19.9954 13.5346 19.9954 14.0013C19.9954 14.468 19.9788 14.918 19.9454 15.3513C19.9121 15.7846 19.8621 16.2235 19.7954 16.668ZM19.2621 8.66797H23.1954C22.551 7.55686 21.7454 6.59019 20.7788 5.76797C19.8121 4.94575 18.7066 4.33464 17.4621 3.93464C17.8621 4.66797 18.2121 5.42908 18.5121 6.21797C18.8121 7.00686 19.0621 7.82352 19.2621 8.66797ZM11.4621 8.66797H16.5288C16.2621 7.69019 15.9177 6.76797 15.4954 5.9013C15.0732 5.03464 14.5732 4.2013 13.9954 3.4013C13.4177 4.2013 12.9177 5.03464 12.4954 5.9013C12.0732 6.76797 11.7288 7.69019 11.4621 8.66797ZM4.79544 8.66797H8.72878C8.92878 7.82352 9.17878 7.00686 9.47878 6.21797C9.77878 5.42908 10.1288 4.66797 10.5288 3.93464C9.28433 4.33464 8.17878 4.94575 7.21211 5.76797C6.24544 6.59019 5.43989 7.55686 4.79544 8.66797Z" fill="#666666"/>
</svg>
