<svg width="14" height="19" viewBox="0 0 14 19" fill="none" xmlns="http://www.w3.org/2000/svg">
<path d="M7.10735 18.0473C5.23794 18.0473 3.68954 17.8006 2.46216 17.3072C1.23478 16.8135 0.621094 15.9972 0.621094 14.8581C0.621094 13.7189 1.23518 12.9026 2.46334 12.4089C3.6915 11.9155 5.24029 11.6688 7.10971 11.6688C8.97913 11.6688 10.5275 11.9155 11.7549 12.4089C12.9823 12.9026 13.596 13.7189 13.596 14.8581C13.596 15.9972 12.9819 16.8135 11.7537 17.3072C10.5256 17.8006 8.97677 18.0473 7.10735 18.0473ZM7.10853 16.1627C5.49213 16.1627 4.20491 15.9917 3.24688 15.6498C2.28885 15.3081 1.74702 14.8328 1.62137 14.2239C1.55965 14.3145 1.51646 14.4171 1.4918 14.5318C1.46699 14.6466 1.45458 14.7553 1.45458 14.8581C1.45458 15.5648 1.96893 16.1341 2.99764 16.566C4.02634 16.9979 5.39664 17.2139 7.10853 17.2139C8.82042 17.2139 10.1907 16.9979 11.2194 16.566C12.2481 16.1341 12.7625 15.5648 12.7625 14.8581C12.7625 14.7553 12.7501 14.6466 12.7253 14.5318C12.7006 14.4171 12.6574 14.3145 12.5957 14.2239C12.47 14.8328 11.9282 15.3081 10.9702 15.6498C10.0121 15.9917 8.72493 16.1627 7.10853 16.1627ZM7.10853 15.3292C8.49061 15.3292 9.6214 15.1957 10.5009 14.9287C11.3804 14.6617 11.8202 14.3241 11.8202 13.9157C11.8202 13.5074 11.3804 13.1697 10.5009 12.9027C9.6214 12.6357 8.49061 12.5022 7.10853 12.5022C5.72645 12.5022 4.59566 12.6357 3.71616 12.9027C2.83666 13.1697 2.39691 13.5074 2.39691 13.9157C2.39691 14.3241 2.83666 14.6617 3.71616 14.9287C4.59566 15.1957 5.72645 15.3292 7.10853 15.3292ZM6.23876 10.6176V6.26852H4.499L7.9783 0.179688V4.52875H9.71807L6.23876 10.6176Z" fill="#1C1B1F"/>
</svg>
