<svg width="37" height="37" viewBox="0 0 37 37" fill="none" xmlns="http://www.w3.org/2000/svg">
<path d="M36.6067 36.2522L22.3703 14.6253C22.3703 14.6253 22.3703 14.6178 22.3628 14.6178L0.758587 0.404113C0.478701 0.169614 0.168557 0.472194 0.403056 0.759645L14.6319 22.3789L36.2512 36.6077C36.531 36.8422 36.8412 36.5397 36.6067 36.2522Z" fill="white"/>
<path d="M18.4947 21.2862C20.0321 21.2862 21.2784 20.0399 21.2784 18.5025C21.2784 16.9651 20.0321 15.7188 18.4947 15.7188C16.9573 15.7188 15.7109 16.9651 15.7109 18.5025C15.7109 20.0399 16.9573 21.2862 18.4947 21.2862Z" fill="#F47920"/>
<path d="M18.4947 21.2862C20.0321 21.2862 21.2784 20.0399 21.2784 18.5025C21.2784 16.9651 20.0321 15.7188 18.4947 15.7188C16.9573 15.7188 15.7109 16.9651 15.7109 18.5025C15.7109 20.0399 16.9573 21.2862 18.4947 21.2862Z" fill="url(#paint0_linear_27_462)"/>
<path d="M18.4947 21.2862C20.0321 21.2862 21.2784 20.0399 21.2784 18.5025C21.2784 16.9651 20.0321 15.7188 18.4947 15.7188C16.9573 15.7188 15.7109 16.9651 15.7109 18.5025C15.7109 20.0399 16.9573 21.2862 18.4947 21.2862Z" fill="url(#paint1_linear_27_462)"/>
<defs>
<linearGradient id="paint0_linear_27_462" x1="15.0323" y1="15.7188" x2="21.7845" y2="22.7126" gradientUnits="userSpaceOnUse">
<stop stop-color="#FF8500"/>
<stop offset="1" stop-color="#6814F1"/>
</linearGradient>
<linearGradient id="paint1_linear_27_462" x1="15.7966" y1="15.0764" x2="21.2784" y2="21.5432" gradientUnits="userSpaceOnUse">
<stop offset="0.295" stop-color="#FBD960" stop-opacity="0.86"/>
<stop offset="0.64" stop-color="#FF9500"/>
<stop offset="0.950026" stop-color="#9B5C04"/>
<stop offset="1" stop-color="#9B5C04"/>
</linearGradient>
</defs>
</svg>
