<svg width="198" height="42" viewBox="0 0 198 42" fill="none" xmlns="http://www.w3.org/2000/svg">
<path d="M53.8505 0.975387L39.5786 40H34.0594L27.8712 12.7943H27.4252L19.8991 40H14.6029L0.331007 0.975387H5.79445L16.4983 31.5818H17.2231L25.1953 0.975387H30.6587L36.9584 31.5818H37.6831L48.387 0.975387H53.8505ZM78.0301 31.4703C78.0301 32.511 78.1973 33.3844 78.5318 34.0906C78.9035 34.7596 79.3123 35.2985 79.7583 35.7073C80.2043 36.079 80.6131 36.3391 80.9848 36.4878C81.3936 36.6365 81.6352 36.7294 81.7095 36.7665L80.6503 41.2822C80.2043 41.1707 79.7025 40.9663 79.145 40.669C78.6247 40.4088 78.0858 40.0743 77.5283 39.6655C76.9708 39.2195 76.4319 38.7178 75.9116 38.1603C75.3912 37.5656 74.9267 36.8966 74.5178 36.1533H73.8488C73.5143 36.4878 73.1055 36.9524 72.6224 37.547C72.1392 38.1417 71.5074 38.7549 70.7269 39.3868C69.9464 39.9814 69.0172 40.5017 67.9394 40.9477C66.8616 41.3937 65.5608 41.6167 64.0369 41.6167C61.9185 41.6167 60.0416 41.2451 58.4062 40.5017C56.7709 39.7584 55.3958 38.7921 54.2808 37.6028C53.1658 36.3763 52.311 35.0197 51.7163 33.5331C51.1588 32.0092 50.8801 30.4668 50.8801 28.9059C50.8801 27.4935 51.1217 26.0998 51.6048 24.7247C52.088 23.3123 52.8499 22.0487 53.8905 20.9337C54.9312 19.8187 56.2692 18.9081 57.9045 18.202C59.577 17.4958 61.6026 17.1427 63.9812 17.1427C65.4307 17.1427 66.6943 17.4029 67.7722 17.9232C68.8871 18.4435 69.8163 19.0196 70.5596 19.6515C71.4516 20.4319 72.2135 21.2868 72.8454 22.2159H73.4586C73.3099 21.0266 73.0312 19.8745 72.6224 18.7595C72.2135 17.6073 71.6003 16.5852 70.7826 15.6932C69.965 14.8013 68.9057 14.0951 67.6049 13.5748C66.3413 13.0173 64.7617 12.7385 62.8662 12.7385C59.7442 12.7385 57.2541 13.4633 55.3958 14.9127L52.5526 11.289C55.2285 9.17056 58.6664 8.11132 62.8662 8.11132C65.8767 8.11132 68.3668 8.59448 70.3366 9.5608C72.3436 10.49 73.9232 11.735 75.0753 13.296C76.2647 14.857 77.0823 16.641 77.5283 18.648C78.0115 20.6178 78.2531 22.6433 78.2531 24.7247C78.2159 25.8025 78.1787 26.7874 78.1416 27.6794C78.1044 28.4599 78.0672 29.2218 78.0301 29.9651C78.0301 30.6713 78.0301 31.173 78.0301 31.4703ZM64.0369 36.9895C65.8209 36.9895 67.3076 36.7294 68.4969 36.209C69.6862 35.6887 70.634 35.0383 71.3401 34.2578C72.0463 33.4773 72.5294 32.6411 72.7896 31.7491C73.0869 30.8571 73.2356 30.058 73.2356 29.3519C73.2356 28.4227 73.0126 27.5121 72.5666 26.6201C72.1578 25.691 71.5445 24.8733 70.7269 24.1672C69.9464 23.461 68.9801 22.8849 67.8279 22.4389C66.6758 21.9929 65.3935 21.7699 63.9812 21.7699C63.275 21.7699 62.4388 21.8814 61.4725 22.1044C60.5061 22.2903 59.577 22.6619 58.685 23.2194C57.793 23.7397 57.0311 24.4645 56.3993 25.3936C55.8046 26.3228 55.5073 27.4935 55.5073 28.9059C55.5073 29.9094 55.6931 30.8943 56.0648 31.8606C56.4364 32.8269 56.9753 33.7003 57.6815 34.4808C58.3877 35.2241 59.2797 35.8374 60.3575 36.3205C61.4353 36.7665 62.6618 36.9895 64.0369 36.9895ZM98.579 8.16707C100.326 8.16707 101.794 8.4644 102.983 9.05906C104.172 9.61655 105.139 10.397 105.882 11.4005C106.625 12.3669 107.164 13.519 107.499 14.857C107.871 16.195 108.056 17.6259 108.056 19.1497V40H103.429V19.1497C103.429 17.3286 103.076 15.8233 102.37 14.634C101.664 13.4075 100.4 12.7943 98.579 12.7943C96.9065 12.7943 95.4012 13.1845 94.0632 13.965C92.7253 14.7083 91.5917 15.7118 90.6625 16.9755C89.7334 18.202 89.0086 19.5957 88.4883 21.1567C88.0051 22.6805 87.7636 24.2229 87.7636 25.7839V40H83.1364V9.4493H87.7636V16.195H88.2096C88.6556 15.2287 89.1759 14.2809 89.7705 13.3518C90.3652 12.3854 91.0714 11.5306 91.889 10.7873C92.7067 10.0068 93.6544 9.37497 94.7322 8.89181C95.8472 8.40865 97.1295 8.16707 98.579 8.16707ZM142.065 0.975387V40H137.438V33.2543L136.992 33.3101C135.802 35.763 134.26 37.7143 132.364 39.1638C130.506 40.6132 128.388 41.338 126.009 41.338C123.184 41.338 120.75 40.9477 118.706 40.1672C116.699 39.3868 115.045 38.2718 113.744 36.8223C112.443 35.3728 111.496 33.626 110.901 31.5818C110.306 29.5377 110.009 27.252 110.009 24.7247C110.009 22.123 110.362 19.8001 111.068 17.756C111.811 15.6747 112.852 13.9278 114.19 12.5155C115.528 11.1032 117.145 10.0254 119.04 9.28206C120.936 8.50156 123.036 8.11132 125.34 8.11132C126.827 8.11132 128.183 8.3529 129.41 8.83606C130.636 9.31922 131.733 9.95105 132.699 10.7315C133.665 11.4749 134.501 12.3297 135.208 13.296C135.951 14.2623 136.546 15.2287 136.992 16.195H137.438V0.975387H142.065ZM126.009 36.7108C127.867 36.7108 129.503 36.302 130.915 35.4843C132.327 34.6666 133.517 33.6631 134.483 32.4738C135.449 31.2845 136.174 29.9837 136.657 28.5714C137.14 27.159 137.382 25.8768 137.382 24.7247C137.382 23.015 137.085 21.4354 136.49 19.9859C135.895 18.5365 135.078 17.2728 134.037 16.195C132.996 15.1172 131.77 14.2809 130.357 13.6863C128.982 13.0544 127.514 12.7385 125.953 12.7385C123.612 12.7385 121.698 13.1102 120.211 13.8535C118.762 14.5968 117.609 15.5446 116.755 16.6967C115.937 17.8489 115.379 19.1311 115.082 20.5434C114.785 21.9558 114.636 23.3495 114.636 24.7247C114.636 28.8873 115.547 31.9349 117.368 33.8676C119.189 35.763 122.069 36.7108 126.009 36.7108ZM172.686 24.2229V26.5644H148.881C149.141 30.058 150.144 32.6225 151.891 34.2578C153.638 35.8931 156.202 36.7108 159.585 36.7108C160.216 36.7108 160.867 36.655 161.536 36.5435C162.205 36.3949 162.874 36.209 163.543 35.986C164.212 35.7259 164.844 35.41 165.438 35.0383C166.033 34.6295 166.553 34.1463 166.999 33.5888L170.623 36.5435C169.917 37.4355 169.099 38.1789 168.17 38.7735C167.241 39.3682 166.274 39.8513 165.271 40.223C164.305 40.6318 163.32 40.9106 162.316 41.0592C161.35 41.2451 160.439 41.338 159.585 41.338C154.604 41.338 150.795 39.9257 148.156 37.101C145.517 34.2392 144.198 30.1138 144.198 24.7247C144.198 23.8698 144.272 22.8849 144.421 21.7699C144.607 20.6178 144.904 19.4285 145.313 18.202C145.759 16.9755 146.353 15.7676 147.097 14.5783C147.84 13.3518 148.769 12.2739 149.884 11.3448C151.036 10.3785 152.411 9.59797 154.01 9.00331C155.608 8.40865 157.466 8.11132 159.585 8.11132C161.517 8.11132 163.19 8.40865 164.602 9.00331C166.014 9.5608 167.204 10.3041 168.17 11.2333C169.136 12.1253 169.917 13.1659 170.511 14.3553C171.106 15.5074 171.552 16.6967 171.849 17.9232C172.184 19.1125 172.407 20.2647 172.518 21.3797C172.63 22.4575 172.686 23.4052 172.686 24.2229ZM167.947 21.9372C167.835 20.8965 167.612 19.8373 167.278 18.7595C166.981 17.6445 166.516 16.641 165.884 15.749C165.252 14.857 164.416 14.1323 163.375 13.5748C162.372 13.0173 161.108 12.7385 159.585 12.7385C157.726 12.7385 156.165 12.9987 154.902 13.519C153.638 14.0393 152.597 14.7269 151.78 15.5817C150.962 16.4366 150.33 17.4215 149.884 18.5365C149.475 19.6143 149.178 20.7479 148.992 21.9372H167.947ZM190.206 8.16707C191.879 8.16707 193.291 8.42723 194.443 8.94756C195.595 9.46789 196.543 10.174 197.286 11.066L193.886 14.5225C193.514 14.0022 193.012 13.5933 192.38 13.296C191.786 12.9615 191.061 12.7943 190.206 12.7943C188.534 12.7943 187.028 13.1845 185.69 13.965C184.353 14.7083 183.219 15.7118 182.29 16.9755C181.361 18.202 180.636 19.5957 180.116 21.1567C179.632 22.6805 179.391 24.2229 179.391 25.7839V40H174.764V9.4493H179.391V16.195H179.837C180.283 15.2287 180.803 14.2809 181.398 13.3518C181.992 12.3854 182.699 11.5306 183.516 10.7873C184.334 10.0068 185.282 9.37497 186.359 8.89181C187.474 8.40865 188.757 8.16707 190.206 8.16707Z" fill="#FF9500"/>
</svg>
