<svg width="34" height="28" viewBox="0 0 34 28" fill="none" xmlns="http://www.w3.org/2000/svg">
<g id="mail">
<path id="mail_2" d="M3.369 28C2.44252 28 1.64941 27.6573 0.989643 26.9719C0.329881 26.2865 0 25.4625 0 24.5V3.5C0 2.5375 0.329881 1.71354 0.989643 1.02813C1.64941 0.342708 2.44252 0 3.369 0H30.321C31.2475 0 32.0406 0.342708 32.7003 1.02813C33.3601 1.71354 33.69 2.5375 33.69 3.5V24.5C33.69 25.4625 33.3601 26.2865 32.7003 26.9719C32.0406 27.6573 31.2475 28 30.321 28H3.369ZM16.845 15.75L3.369 7V24.5H30.321V7L16.845 15.75ZM16.845 12.25L30.321 3.5H3.369L16.845 12.25ZM3.369 7V3.5V24.5V7Z" fill="#252525"/>
</g>
</svg>
