<svg width="197" height="212" viewBox="0 0 197 212" fill="none" xmlns="http://www.w3.org/2000/svg">
<path d="M120.085 119.731V119.174L119.528 118.352V117.792L120.085 116.705L120.641 117.262V117.792V118.909V119.174H120.085V119.731Z" fill="#F2F2F2"/>
<path d="M122.023 127.477L121.198 126.92V126.364H120.641V125.807V124.72L120.085 124.425V123.338V122.782L119.528 121.96L118.412 121.403L117.59 120.287L118.146 119.174L117.59 118.909H117.033V118.352V117.261V116.705L117.59 117.261L118.146 117.792V117.261V116.705L118.412 116.148L118.146 115.857L117.033 115.327V114.77V113.654L117.59 114.21V113.654L115.946 112.832V112.275L114.564 111.159L114.008 110.628L113.451 110.337H114.564V109.78H114.008L113.451 109.224L112.338 108.693H112.073V109.224H111.513V108.693L110.957 108.137V107.577V106.755H111.513V105.642L110.957 104.525V104.26H110.4V103.704V102.591L109.869 102.325V101.769H109.313L103.767 102.325L102.945 99.0088L87.1837 97.6269L81.6633 94.5756L83.0452 89.0589H80.0197L79.4633 86.0076L70.3352 79.3743L60.6506 76.9053L58.7122 78.5525L47.6752 79.9308L52.0789 87.1205L49.6136 87.9423L47.9405 90.1718L43.5368 90.4371L41.8637 92.6409L38.8124 94.0449L32.4739 92.1102H31.9138L31.3573 92.6409V93.1973L30.8009 93.4884L30.2702 94.0449L29.7138 95.1357V95.6922V96.514V97.0704L29.4226 98.187L29.7138 98.7435L30.2702 98.187L30.8009 98.7435V99.0088H32.4739V99.5653L33.2957 101.209V102.325L33.8522 102.591V103.147V104.26L34.4086 104.525L34.9651 105.642L34.4086 106.755L35.4958 107.311L35.7906 107.577H36.347L36.9035 109.224V110.628V111.159L37.4342 111.719L38.5471 112.832L37.9906 113.097V113.654L38.5471 114.77L38.8124 115.327L39.3725 115.857L39.929 116.148V116.705L40.4855 117.261L41.0419 118.352V118.909V119.73V120.287V120.843H39.929L40.4855 122.782H41.0419L41.5984 123.338V124.425L42.4238 124.72H42.9803L43.5368 125.277L44.0674 125.807H45.1803L47.1187 127.742H47.6752H48.497L49.0571 128.302L49.6136 129.415L49.0571 129.971V130.793V132.44L49.6136 132.997L50.17 133.288V133.845L50.7007 134.935L50.17 135.492L49.6136 136.048V136.87V137.426L49.0571 137.987V138.543L49.6136 138.808H50.17V139.365V139.921V140.478L50.7007 141.008L50.17 141.86V142.39L50.7007 142.947L51.2571 144.06V144.885L51.5483 145.998L52.0789 146.555L52.6391 147.111L53.1955 147.937L54.3084 148.493L54.5738 147.937L55.1302 149.024H55.6904L56.2468 149.58H56.8033L57.6251 150.137L58.1815 150.693L58.7122 150.958L59.8288 152.075L60.3853 153.188H59.8288V153.453L60.3853 154.57L60.6506 155.126L61.207 155.948V157.061L60.6506 157.592L61.7635 158.708V158.974V159.53L62.3236 160.643L62.8801 162.025V162.581L63.4366 163.694L63.7019 164.785H64.2583L65.3455 165.076V166.163H65.9056L66.7532 166.72L67.2839 167.276V168.658V169.215H67.8403V168.658H68.3968V169.215L69.5134 169.771H69.7787V171.153L70.3352 171.709V172.24V173.353L69.7787 173.644L70.8916 174.175V175.291H71.4481V174.735L72.83 174.175L73.3865 173.353H73.9171H74.4736V172.797L73.9171 172.24V171.709H74.4736L73.9171 171.153V170.593V169.771H74.4736V168.658L75.5902 168.102V167.542H76.412L76.9684 168.102H78.0813L78.612 169.215L78.9068 168.658L80.5504 168.102L81.1068 168.658L82.4888 167.542L83.0452 168.658L92.7298 173.644L92.1733 179.164L104.88 164.785L127.54 160.643L146.883 153.453L151.047 140.478L147.996 136.87L145.796 138.543L140.25 136.87H137.224L135.29 136.048L129.213 135.492L127.54 133.288L127.274 130.793L122.58 127.742L122.023 127.477Z" fill="#212121" stroke="#F2F2F2" stroke-width="0.368515"/>
<path d="M75.0304 196.861H74.4739L73.9174 196.305L74.4739 196.013L73.3868 194.926L73.9174 194.37L72.8303 193.81L73.3868 191.875L72.8303 190.493L72.5392 189.38V188.824H71.9791V188.293V187.737L71.4484 186.911V186.355L70.8919 185.798L70.3355 185.242H69.779L69.5137 184.42L69.779 183.86L70.3355 184.42H70.8919V183.303L69.779 182.747V182.19L69.5137 181.925V181.369L68.3971 181.925V181.369L68.9572 180.809L69.5137 180.278H69.779V179.721V178.874L69.5137 178.343L69.779 177.787V177.227V176.67V175.848L70.8919 174.735V175.292H71.4484V174.735L72.8303 174.175L73.3868 173.353H73.9174H74.4739V172.797L73.9174 172.241V171.71H74.4739L73.9174 171.153V170.593V169.772H74.4739V168.659L75.5905 168.102V167.542H76.4123L76.9687 168.102H78.0817L78.6123 169.215L78.9071 168.659L80.5507 168.102L81.1072 168.659L82.4891 167.542L83.0456 168.659L92.7301 173.645L92.1737 179.165L87.7404 183.303H88.0316V183.86L88.5622 184.42L88.0316 185.242L87.7404 185.798L88.0316 186.355L89.1224 185.798L88.5622 185.242H89.6788L90.2353 185.798H91.3482L91.6135 186.355L91.3482 186.911L90.7917 188.293L90.2353 188.824L89.6788 189.38L89.1224 190.493H87.7404V189.38H86.6533L86.0969 190.493L85.5404 190.758H84.9803L84.7149 190.493H83.0456L82.4891 191.319L81.1072 192.432V192.988L80.5507 193.253V194.37L80.0201 194.926H78.9071V194.37L77.5252 194.926V195.457L76.9687 194.926L75.8558 196.013L75.0304 196.861Z" fill="#212121" stroke="#F2F2F2" stroke-width="0.368515"/>
<path d="M133.351 175.291L132.795 175.848H132.238L131.148 176.113V176.669L130.3 177.226V178.873L129.769 179.164L130.3 180.277H129.213H128.657L128.096 180.808L127.275 181.368H126.718H125.605L125.045 182.19L124.514 182.746H123.136L122.58 183.303L121.728 183.859H120.641L118.412 184.419L118.146 184.684L117.034 185.241L115.946 185.797L115.39 186.354L114.565 185.797L113.452 186.354H112.073L111.513 186.91H110.957H109.87V187.736L109.022 188.292L108.462 188.823L107.375 189.936H105.997L104.88 190.492L103.767 189.379L102.389 189.936H101.829L101.298 190.758V191.874L100.185 192.431L99.9197 192.987H98.2467L96.8684 193.252L95.7555 193.809L94.1083 194.369L93.8171 193.809L92.73 194.369L91.6134 193.809H90.7916H89.1222L87.7403 194.369L86.6532 195.456L86.0967 196.013L84.9801 196.304L84.7148 196.86H83.6019L83.0454 197.951H81.6635L80.5506 196.86L80.0199 197.391L79.4635 197.951H78.907H78.6122H78.0815H77.5251L76.4122 197.391L75.8557 196.013L76.9686 194.926L77.5251 195.456V194.926L78.907 194.369V194.926H80.0199L80.5506 194.369V193.252L81.107 192.987V192.431L82.489 191.318L83.0454 190.492H84.7148L84.9801 190.758H85.5403L86.0967 190.492L86.6532 189.379H87.7403V190.492H89.1222L89.6787 189.379L90.2352 188.823L90.7916 188.292L91.3481 186.91L91.6134 186.354L91.3481 185.797H90.2352L89.6787 185.241H88.5621L89.1222 185.797L88.0314 186.354L87.7403 185.797L88.0314 185.241L88.5621 184.419L88.0314 183.859V183.303H87.7403L92.1736 179.164L104.88 164.785L127.54 160.643H127.275V163.694L132.238 170.327L131.678 172.796L134.173 174.735L133.351 175.291Z" fill="#212121" stroke="#F2F2F2" stroke-width="0.368515"/>
<path d="M148.557 136.87V136.314V136.049H147.997L148.557 134.936V134.375L149.935 133.288L149.378 132.997L149.935 132.441L149.378 131.91L149.935 131.354L150.491 129.415H149.935V128.859L151.048 128.302L151.579 127.742V128.859L152.43 128.302L151.048 126.92V126.364L150.491 125.808L151.048 125.277H151.579H152.139H152.43L152.986 125.808H153.517L157.681 127.477L158.507 128.302L159.063 128.859L160.15 129.415L161.528 130.237H162.645L163.201 130.794L165.14 130.237H166.783L167.34 130.794L168.722 130.237L169.278 130.794V131.354L169.835 132.441L170.657 133.288L171.213 133.845L172.33 134.375L172.886 135.492L173.417 136.049L173.708 136.314L174.264 136.87H175.355V137.987V138.543L174.795 138.809V139.365V139.922L174.264 141.569L173.708 141.86V142.391L172.886 143.504V144.06L171.773 144.886L170.657 145.442L170.391 146.555L169.835 147.111V147.642V147.937L169.278 149.024V149.58L168.722 150.137L168.162 150.693H166.783L167.34 150.137L167.631 149.024L167.34 148.493H166.783H165.696V149.024V150.137L164.58 150.693L164.314 150.959H163.758V152.075L163.201 153.188L162.645 154.01L163.201 155.127V155.948L162.645 156.505L163.201 157.061L162.645 157.592L163.758 158.152V158.974V160.087L162.645 159.53H161.528L160.707 160.087L159.063 160.643H158.507L158.212 161.203L157.125 162.582L157.681 163.695L157.125 164.225V165.076H156.568L156.012 166.164L156.568 166.72H156.012L155.19 166.164H154.073H153.517H152.43L149.935 167.276L149.378 167.542L149.935 168.102L149.113 169.215L149.378 169.771V170.328V170.593L149.113 171.153L148.557 171.71H147.997L147.44 172.24L146.353 172.797H145.797L145.505 171.71L144.945 171.153L143.302 172.24H142.48H141.363L140.807 172.797H139.985L137.781 173.353L137.225 174.175L136.403 173.644L134.174 174.735L131.679 172.797L132.239 170.328L127.275 163.695V160.643H127.54L146.884 153.454L151.048 140.478L147.997 136.87H148.557Z" fill="#212121" stroke="#F2F2F2" stroke-width="0.368515"/>
<path d="M122.023 127.477L123.667 126.92L124.223 127.477H124.514V128.302H125.045H126.162H127.275H127.54V128.859L128.656 129.415H129.213L129.769 128.859H130.857L131.148 128.302H131.678H132.238H133.351L134.173 128.859L134.73 129.415L135.29 128.859L135.846 128.302H137.224L137.781 128.859L139.428 128.302L138.312 128.859L137.781 129.415H138.872L139.985 129.972L140.25 129.415L140.806 128.859H141.363H141.923L142.479 127.742H143.301L143.858 127.477L143.301 126.92V126.364H144.414V125.807H144.945H145.796V125.277L146.353 124.72L146.883 124.425L147.44 123.895L147.996 123.338L149.113 122.782L149.378 121.96L149.935 121.404L150.491 120.843L151.047 120.287L151.578 119.73H152.138V119.174L152.429 118.909H152.986L153.516 119.174V120.287L152.986 121.404H154.073V121.96V122.782L153.516 123.338V123.895V124.72V125.277V125.807H152.986L152.429 125.277H152.138H151.578H151.047L150.491 125.807L151.047 126.364V126.92L152.429 128.302L151.578 128.859V127.742L151.047 128.302L149.935 128.859V129.415H150.491L149.935 131.353L149.378 131.91L149.935 132.441L149.378 132.997L149.935 133.288L148.556 134.375V134.935L147.996 136.048H148.556V136.314V136.87H147.996L145.796 138.543L140.25 136.87H137.224L135.29 136.048L129.213 135.492L127.54 133.288L127.275 130.793L122.58 127.742L122.023 127.477Z" fill="#212121" stroke="#F2F2F2" stroke-width="0.368515"/>
<path d="M154.072 120.844L154.629 120.288L155.189 119.731V119.175V118.91V118.353V117.793H154.629H154.072H153.516H152.985V118.91L153.516 119.175V120.288L152.985 121.404H154.072V120.844Z" fill="#F2F2F2"/>
<path d="M123.667 127.477L123.136 126.92L123.667 126.364H124.223H124.514V125.807V125.277H125.045L125.605 124.425V123.895V123.338V122.225V121.96L125.045 121.404V120.843V120.287H125.605L126.162 119.731H125.605L126.162 119.174V118.909V118.352L125.045 117.792V117.262L124.514 116.705H124.223L123.667 117.262L123.136 117.792L122.023 118.352V118.909V119.174V119.731L122.58 120.287L122.023 120.843L121.729 120.287V120.843L121.198 121.404V121.96L121.729 122.225V122.782V123.338L121.198 123.895V124.425L121.729 125.277L121.198 126.364V126.92L122.023 127.477L123.667 126.92V127.477Z" fill="#F2F2F2"/>
<path d="M123.667 127.477L123.136 126.92L123.667 126.364H124.223H124.514V125.807V125.277H125.045L125.605 124.425V123.895V123.338V122.225V121.96L125.045 121.404V120.843V120.287H125.605L126.162 119.731H125.605L126.162 119.174V118.909V118.352L125.045 117.792V117.262L124.514 116.705H124.223L123.667 117.262L123.136 117.792L122.023 118.352V118.909V119.174V119.731L122.58 120.287L122.023 120.843L121.729 120.287V120.843L121.198 121.404V121.96L121.729 122.225V122.782V123.338L121.198 123.895V124.425L121.729 125.277L121.198 126.364V126.92L122.023 127.477L123.667 126.92V127.477Z" fill="#212121" stroke="#F2F2F2" stroke-width="0.368515"/>
<path d="M96.3117 30.4731V31.5603L96.8682 33.2333L98.2464 34.6116L99.9195 35.1717V35.7282L100.185 35.9935L100.741 36.55V37.6629L102.389 38.7537L103.236 38.1935H103.767L105.996 38.7537L107.375 38.1935L109.022 36.55L110.4 35.9935H110.956L111.513 35.7282L112.073 34.0551H112.338L112.895 33.2333L114.008 33.4987L115.095 34.0551L115.39 34.6116L115.946 35.1717H115.095V35.9935L115.946 36.55V37.1064L115.39 37.6629H115.095L114.008 39.0448L114.564 39.5755V40.6884H115.39L115.946 41.2448L117.033 41.805H117.59H118.146V43.1832V43.7397L117.59 44.2961V45.1216L118.146 45.6781L118.972 47.3216H118.412L118.972 47.6128L120.085 48.7036L120.641 48.1434L121.197 47.6128H121.728L122.579 48.1434V47.6128L123.136 48.1434H124.514L124.223 48.7036V49.8165L124.514 50.3729L125.045 50.6383H125.605L127.274 51.1947L128.656 51.7549L130.3 52.3113L130.856 52.842L133.351 53.1331H134.173L135.846 52.842H136.402L137.781 52.3113L139.428 51.7549L140.25 51.1947H141.363L140.806 51.7549H140.25L139.428 52.3113L140.25 52.842L142.479 52.3113H143.036V51.7549V50.6383V50.3729H144.414H144.945H145.796H146.883L147.439 49.26L146.883 48.7036L148.556 47.6128L149.378 46.7652L150.491 45.6781V46.2087H152.429H152.986L153.516 46.7652L154.073 46.2087H154.629L155.189 45.6781V44.8268H155.455H156.011H156.568L157.124 44.2961L158.506 44.8268H159.619V44.2961H160.706L160.15 45.1216L161.262 45.6781L162.644 46.2087H163.201L164.314 46.7652L165.696 46.2087L166.252 46.7652H167.339L168.161 47.3216L169.834 47.6128L170.391 48.7036L170.656 49.26L172.329 48.7036L172.885 49.8165L173.707 50.6383H174.794L175.911 51.1947L176.467 51.7549L177.289 52.842H177.846L178.962 52.3113L180.34 52.842L180.897 54.7767L180.34 55.3368L180.897 55.8933V56.4498L180.34 57.828L180.897 58.9446L181.428 59.2099V60.3229L180.34 61.41L180.897 62.2612L180.34 62.7919L180.897 63.3484L180.34 65.2867L179.519 66.3997V66.9561L177.846 68.3381L177.289 68.8945L177.846 69.9816L177.289 70.2728L178.406 70.8292H178.962L179.519 71.3599V71.92L178.406 72.4765V73.8547V74.9713V76.0584L178.962 77.4625L179.784 79.1097L180.34 81.0445L179.519 81.8699L179.784 82.4264L179.519 82.9828L180.34 84.0958H179.784V84.9212H180.897L181.988 85.4777H183.366L185.039 86.0083V87.1213L184.479 88.5032L183.366 89.0597L182.544 90.9944L181.988 92.6416L180.897 93.1981L180.34 94.0457L180.897 94.5763L181.428 95.1365V96.2494L182.835 96.5147V98.1878L183.922 98.7442V99.566H185.039L185.595 100.122H185.861L186.417 101.21L187.53 101.77L188.621 102.592L189.999 102.326V102.592H191.672V103.148L191.938 106.199V107.312L193.051 108.694H194.694L195.254 108.138H195.545V109.781L195.254 110.629V111.72L194.163 112.276V113.654H192.494L191.938 113.098V113.654H190.556V113.098L189.999 113.654V114.771L189.469 115.858H188.621L188.061 117.262L187.53 117.793L186.974 117.262L186.417 117.793V118.909L185.595 119.731L185.861 120.288L185.595 120.844L186.417 121.404L185.039 122.782H184.479V123.339L183.922 123.895H182.835L181.988 123.339H179.784H178.962L178.406 122.226L177.846 122.782L177.289 123.339L176.467 122.782L174.794 123.339L174.264 122.782V122.226H172.885L171.212 121.404L170.656 121.961H169.834L169.278 121.404L168.161 120.844H166.783H166.252H165.139H164.314H163.201L162.644 120.288H162.088L161.262 119.731V120.288L159.619 119.731L159.062 117.793L158.506 117.262V116.706L158.211 116.149L158.506 115.858V114.211L158.211 113.654L157.68 112.833H157.124V112.276L156.568 111.72L156.011 111.159H155.189L154.073 111.72H152.986L152.429 112.276L151.578 112.833H150.491H149.934L149.378 113.098L149.112 113.654H147.996H147.439V114.211L146.883 114.771L146.352 115.327H144.414H143.857L143.036 114.771H142.479L141.363 114.211L140.25 113.654L139.984 113.098H138.871L137.781 112.833H137.224H136.668L135.846 112.276H134.729L134.173 111.72L133.616 111.159H133.351L132.795 109.781H132.238L131.678 108.694H132.795L131.678 108.138L131.147 107.578H130.3L129.769 107.312L128.656 106.756H128.096H127.54H126.161L125.605 105.643L125.045 104.526L124.514 104.261V103.148V102.592L124.223 101.77V101.21H123.667L123.136 100.679L122.579 100.122L123.136 99.566H123.667V99.0095V98.7442H123.136L122.579 99.0095V98.7442L122.023 97.6276V97.0712V96.5147L121.728 95.6929L121.197 95.1365L120.085 94.0457V93.1981V92.6416V92.111L119.528 91.5545H118.412L118.146 92.111H117.59L116.503 92.6416L115.946 93.1981H115.39V92.6416H115.095L114.564 92.111H114.008L113.451 91.5545V90.9944V90.4379H114.008L114.564 90.1726L114.008 89.6161L112.895 90.1726H112.338V92.6416L112.073 93.1981H111.513L110.956 92.6416L110.4 91.5545L109.869 90.9944L109.313 90.4379L109.022 90.1726V90.4379V87.4124L106.818 87.1213L106.262 86.5648L106.818 85.4777V84.9212V84.0958L107.375 81.6046L106.818 81.0445V79.9315L106.262 79.3751V78.5533L105.44 77.4625H103.767L103.236 76.906L102.389 76.3496L101.828 75.5278H100.185L99.363 74.9713L99.9195 73.5894L99.363 71.3599L98.8065 70.2728H97.6899L97.1335 69.4252L97.6899 68.3381V67.7779V67.5126L97.1335 66.3997L98.2464 65.8432L98.8065 64.7266L100.185 63.9048V62.2612L101.298 61.41L100.741 60.8793L101.298 59.7664L101.828 59.2099V58.3881V57.828L100.741 58.3881L99.9195 57.2715L99.363 57.828H98.2464H97.6899L97.1335 56.7151L98.2464 55.8933L97.6899 55.3368L97.1335 54.7767V53.1331V52.842H96.8682V52.3113L96.3117 51.1947L95.1951 50.6383L95.7552 49.26L95.1951 48.7036V48.1434L94.6644 47.3216L95.1951 44.8268L94.108 43.7397L94.6644 41.805V41.2448L95.7552 39.5755L94.6644 39.0448V37.6629L93.8168 36.55V34.6116L95.1951 34.0551L95.7552 33.4987V32.6769L96.3117 31.5603L96.8682 32.6769L96.3117 30.4731Z" fill="#212121" stroke="#F2F2F2" stroke-width="0.368515"/>
<path d="M107.931 90.4373H108.462L109.313 90.9938V91.5539L110.4 92.1104V93.1975L110.957 93.4887L110.4 94.0451L109.022 93.4887V93.1975L108.462 92.6411L107.375 92.1104L106.819 91.5539L106.262 92.1104L106.819 93.1975L103.767 92.6411L101.298 94.0451V96.5142L100.742 97.0706L98.2469 98.7437H97.6904L87.184 97.6271L81.6637 94.5758L83.0456 89.0591H80.0201L79.4637 86.0078L70.3355 79.3745L60.651 76.9055L58.7126 69.1593L72.8304 62.2607V61.4094L73.3869 60.3223L73.9175 59.2094V58.9441L74.474 57.8275L75.0304 57.271V55.8928V54.2455L75.8559 53.1326H79.4637L83.0456 50.3724V49.816L84.1585 49.2595L84.715 48.703L84.9803 47.3211H85.5405L86.6534 46.7646L87.7405 47.3211H89.6789L90.2353 47.6122H90.7918L91.3483 48.703L94.6649 47.6122V47.3211L95.1956 48.1429V48.703L95.7557 49.2595L95.1956 50.6377L96.3122 51.1942L96.8686 52.3108V52.8415H97.1339V53.1326V54.7762L97.6904 55.3363L98.2469 55.8928L97.1339 56.7146L97.6904 57.8275H98.2469H99.3635L99.9199 57.271L100.742 58.3876L101.829 57.8275V58.3876V59.2094L101.298 59.7659L100.742 60.8788L101.298 61.4094L100.185 62.2607V63.9043L98.807 64.7261L98.2469 65.8427L97.1339 66.3991L97.6904 67.512V67.7774V68.3375L97.1339 69.4246L97.6904 70.2722H98.807L99.3635 71.3593L99.9199 73.5888L99.3635 74.9708L100.185 75.5272H101.829L102.389 76.349L103.237 76.9055L103.767 77.4619H105.44L106.262 78.5527V79.3745L106.819 79.931V81.0439L107.375 81.604L106.819 84.0952V84.9207V85.4771L106.262 86.5643L106.819 87.1207L109.022 87.4118V90.4373H107.931Z" fill="#212121" stroke="#F2F2F2" stroke-width="0.368515"/>
<path d="M107.375 93.1976L107.931 93.4887V94.0452L108.462 94.5758L107.931 95.136V94.5758H106.818L106.262 95.136L105.996 96.2489L106.262 96.5142V96.2489H106.818H107.931V97.0707L107.375 97.6271V98.1873L108.462 99.5655L109.022 100.122L109.313 100.678V101.209V101.769L103.767 102.326L102.945 99.009L98.8065 98.7437H98.2464L100.741 97.0707L101.298 96.5142V94.0452L103.767 92.6411L106.818 93.1976H107.375Z" fill="#212121" stroke="#F2F2F2" stroke-width="0.368515"/>
<path d="M108.462 94.5756V94.0449H109.022V94.5756H108.462Z" fill="#F2F2F2"/>
<path d="M41.5985 71.359H42.424L42.9804 70.8284V71.359L43.5369 72.4756H44.0675L47.1188 74.4103L72.8301 62.7911V61.4091L73.3866 60.322L73.9172 59.2091V58.9438L74.4737 57.8272L75.0302 57.2707V55.8925V54.2452L75.8556 53.1323H79.4634L83.0454 50.3721V48.7027H81.9287L81.107 49.2592L80.0198 49.8156L78.9069 49.2592L78.0815 49.8156L76.9685 49.2592H76.4121L75.0302 48.7027H73.3866H72.539L70.8917 49.2592H69.5135L68.3969 50.3721L65.9057 49.8156L64.8149 49.2592L63.4367 48.7027L62.8802 47.6119H61.2072L60.3854 47.3208H59.2725L58.1817 48.1426H56.8034L54.5739 48.7027L54.3086 47.6119H52.6392V47.3208H51.5484L50.7008 48.7027V49.8156H50.1701L49.0572 51.1939L48.4971 51.754H47.6753L47.1188 51.1939L46.5624 52.3105L46.0059 52.8412V53.1323V53.6887L45.4458 54.7759L46.0059 55.336L45.4458 56.4489L45.1804 57.2707V57.8272V58.3873L45.4458 58.9438H46.0059L46.5624 59.2091L47.6753 58.9438L47.9406 59.2091L48.4971 58.9438L49.0572 59.2091V59.7655V60.322L49.6137 60.8785L49.0572 61.9693L47.9406 62.2604L47.1188 62.7911V63.3475L46.5624 63.904L45.4458 64.4604L44.624 64.7258V65.2859L44.0675 66.3988L44.624 66.9553L43.5369 67.5117L41.8638 68.3372L41.5985 68.8937L41.042 69.4243V69.9808V70.2719V70.8284V71.9192L41.5985 71.359Z" fill="#212121" stroke="#F2F2F2" stroke-width="0.368515"/>
<path d="M60.651 76.9054L58.7126 78.5526L47.6756 79.9309L52.0794 87.1206L49.614 87.9424L47.9409 90.1719L43.5372 90.4372L41.8641 92.6409L38.8128 94.045L32.4744 92.1103V91.5538V90.9937V90.4372L32.7397 90.1719V89.6154L34.4091 87.9424L34.9655 86.5641L35.4962 85.477V84.9206L36.3475 83.5386L36.9039 82.9822V82.4257L37.991 81.6039V81.0438V80.4873V79.3744H37.4346H36.3475H35.4962L34.9655 79.1091L35.791 77.9925H36.3475V77.4618H35.4962L36.3475 76.3489L35.791 76.0578L36.3475 74.9707L36.9039 74.4105H36.3475L36.9039 73.5887L37.4346 73.0323V72.4758L37.991 71.9194L38.8128 71.3592L39.373 71.9194V73.0323L40.4859 71.9194V71.3592L41.0424 71.9194L41.3077 71.3592H42.4243L42.9807 70.8286V71.3592L43.5372 72.4758H44.0679L47.1192 74.4105L58.7126 69.1592H59.0074L60.651 76.9054Z" fill="#212121" stroke="#F2F2F2" stroke-width="0.368515"/>
<path d="M96.3117 31.5596V30.4725H95.1951L94.6645 30.1814H93.8169L92.1733 29.0943L91.6132 27.9777L91.3478 27.7123L91.6132 27.1559V26.043V25.4865L92.7298 24.9264L92.1733 24.661V24.1046V23.5481V22.461L91.3478 21.9045L90.7914 21.6097L90.2349 21.0791L89.6785 20.5226L89.122 19.9662L87.7401 20.5226L87.1836 19.9662H86.653L85.54 20.5226L84.9799 19.9662L84.7146 19.4097V19.9662L84.1581 21.0791H83.6017H83.0452L81.9286 21.9045H81.1068L80.5504 22.461L78.9068 22.9917L78.0813 23.5481L77.5248 24.1046L76.4119 24.661H75.03L73.9171 24.1046L73.3864 23.5481V22.9917H72.5388L71.448 23.5481H70.3351H69.5133L68.9569 24.1046L67.8403 23.5481L67.2838 24.1046L66.1967 23.5481L65.9056 22.461L65.3454 21.9045L64.8148 21.0791L64.2583 21.6097V21.9045L63.7019 21.6097L62.3236 21.9045V21.0791V19.9662H61.207H60.3852H59.8288H59.2723L58.7122 21.0791L57.625 20.5226L56.8032 19.9662V18.8532H57.0686L57.625 18.5879L57.0686 18.0278H56.2468H55.1302L54.5737 18.5879L54.3084 18.0278L53.7519 17.4713V16.9149V16.3584V16.0931L54.3084 15.5366V14.9765V14.4458H53.7519L52.639 14.9765H51.5482L50.7006 15.5366H49.6135H49.0571L47.6751 14.9765H46.5622L45.4456 14.4458H44.6238H43.5367L42.4238 14.9765H41.5983L40.4854 15.5366L39.3725 16.0931L38.8124 15.5366H38.547H37.9906L36.9034 16.0931H35.4957L34.4086 16.3584L33.8521 17.4713V18.0278H32.4739H31.9138H30.2702L29.7137 17.4713H28.8625L27.7753 16.9149L27.2189 16.3584H24.724H23.3458L22.7893 16.9149L22.2292 17.4713V18.0278L22.7893 18.8532H23.6369L24.724 19.4097V19.9662H24.1676L22.7893 19.4097H21.6985L21.1421 19.9662H20.3203H18.6472V20.5226L19.7638 21.0791L20.3203 21.6097H19.7638H18.6472L17.5343 21.0791H16.7125H15.0653L14.5088 20.5226V19.9662V19.4097H13.687V19.9662H13.1306H12.0139L11.4575 19.4097H10.901H10.6357H10.0792H8.43198H7.5844L7.05374 19.9662L6.49728 20.5226L5.94082 21.0791H5.11535L4.55889 21.6097L4.00244 22.461L3.44598 22.9917L2.88952 23.5481H4.00244L5.11535 24.1046L5.38068 23.5481H6.49728L7.05374 24.1046L6.49728 24.661L5.94082 24.9264H5.38068L4.55889 25.4865L5.11535 26.043L5.38068 26.5994V27.1559H5.11535V27.7123L5.38068 27.9777H6.49728V28.5378L5.38068 29.0943L5.11535 29.6249L4.55889 30.1814V30.4725H5.38068L5.94082 31.029H4.55889L4.00244 30.4725H3.44598H2.88952L3.44598 30.1814L2.88952 29.0943L2.32938 28.5378V29.0943V29.6249L1.79872 30.1814H1.50759H0.420471V31.029H1.50759L1.79872 31.5596L2.32938 32.1198H3.44598V32.6762V33.2327H5.38068L5.94082 34.0545L5.38068 35.1711L4.55889 35.7275L4.00244 35.9929H4.55889V36.5493L5.11535 37.1058H5.38068V38.1929H5.11535L4.55889 39.0442H3.44598H2.88952L4.00244 39.5748H5.38068H5.94082L7.05374 40.1313H8.14086L7.5844 41.2442H7.05374L6.49728 40.6878L5.38068 41.2442H5.11535H3.44598V41.8044H5.11535H5.94082H7.05374L6.49728 42.0697L5.94082 43.1826L5.38068 43.7391H7.05374L7.5844 43.1826L8.14086 42.6261V42.0697L9.52279 41.2442H10.0792V41.8044L10.6357 42.6261L10.901 43.7391H11.4575V43.1826L12.0139 42.6261L12.5741 43.1826V43.7391L12.0139 44.2955L12.5741 45.121L13.1306 45.6774V46.2081L13.687 46.7646H14.5088H15.0653H16.1561H16.7125H17.269H17.5343H18.6472V46.2081L19.7638 45.121V44.8262V44.2955L20.3203 43.1826H21.1421L23.3458 43.7391H23.6369L25.2805 44.8262L27.7753 45.6774V46.7646V47.6121L29.4226 48.7029L30.2702 49.2594H31.3573H32.7392H35.4957H36.347L37.4341 48.7029L38.547 48.1428L39.3725 46.7646L39.929 46.2081L40.4854 45.6774H41.8637L42.4238 46.2081H43.5367L44.0674 46.7646L45.1803 47.6121L47.1187 46.7646V46.2081L47.9405 46.7646L49.0571 46.2081L50.17 46.7646L49.6135 47.321L49.0571 47.6121L48.4969 48.1428H47.6751H47.1187L46.5622 48.7029V49.2594L47.1187 50.3723V51.1941L47.6751 51.7542H48.4969L49.0571 51.1941L50.17 49.8159H50.7006V48.7029L51.5482 47.321H52.639V47.6121H54.3084L54.5737 48.7029L56.8032 48.1428H58.1815L59.2723 47.321H60.3852L61.207 47.6121H62.8801L63.4365 48.7029L64.8148 49.2594L65.9056 49.8159L68.3967 50.3723L69.5133 49.2594H70.8916L72.5388 48.7029H73.3864H75.03L76.4119 49.2594H76.9684L78.0813 49.8159L78.9068 49.2594L80.0197 49.8159L81.1068 49.2594L81.9286 48.7029H83.0452V50.3723V49.8159L84.1581 49.2594L84.7146 48.7029L84.9799 47.321H85.54L86.653 46.7646L87.7401 47.321H89.6785L90.2349 47.6121H90.7914L91.3478 48.7029L94.6645 47.6121L95.1951 48.1428L94.6645 47.321L95.1951 44.8262L94.108 43.7391L94.6645 41.8044V41.2442L95.7553 39.5748L94.6645 39.0442V37.6622L93.8169 36.5493V34.6109L95.1951 34.0545L95.7553 33.498V32.6762L96.3117 31.5596L96.8682 32.6762L96.3117 31.5596Z" fill="#212121"/>
<path d="M96.3117 31.5596V30.4725H95.1951L94.6645 30.1814H93.8169L92.1733 29.0943L91.6132 27.9777L91.3478 27.7123L91.6132 27.1559V26.043V25.4865L92.7298 24.9264L92.1733 24.661V24.1046V23.5481V22.461L91.3478 21.9045L90.7914 21.6097L90.2349 21.0791L89.6785 20.5226L89.122 19.9662L87.7401 20.5226L87.1836 19.9662H86.653L85.54 20.5226L84.9799 19.9662L84.7146 19.4097V19.9662L84.1581 21.0791H83.6017H83.0452L81.9286 21.9045H81.1068L80.5504 22.461L78.9068 22.9917L78.0813 23.5481L77.5248 24.1046L76.4119 24.661H75.03L73.9171 24.1046L73.3864 23.5481V22.9917H72.5388L71.448 23.5481H70.3351H69.5133L68.9569 24.1046L67.8403 23.5481L67.2838 24.1046L66.1967 23.5481L65.9056 22.461L65.3454 21.9045L64.8148 21.0791L64.2583 21.6097V21.9045L63.7018 21.6097L62.3236 21.9045V21.0791V19.9662H61.207H60.3852H59.8288H59.2723L58.7122 21.0791L57.625 20.5226L56.8033 19.9662V18.8532H57.0686L57.625 18.5879L57.0686 18.0278H56.2468H55.1302L54.5737 18.5879L54.3084 18.0278L53.7519 17.4713V16.9149V16.3584V16.0931L54.3084 15.5366V14.9765V14.4458H53.7519L52.639 14.9765H51.5482L50.7006 15.5366H49.6135H49.0571L47.6751 14.9765H46.5622L45.4456 14.4458H44.6238H43.5367L42.4238 14.9765H41.5983L40.4854 15.5366L39.3725 16.0931L38.8124 15.5366H38.547H37.9906L36.9034 16.0931H35.4957L34.4086 16.3584L33.8521 17.4713V18.0278H32.4739H31.9138H30.2702L29.7137 17.4713H28.8625L27.7753 16.9149L27.2189 16.3584H24.724H23.3458L22.7893 16.9149L22.2292 17.4713V18.0278L22.7893 18.8532H23.6369L24.724 19.4097V19.9662H24.1676L22.7893 19.4097H21.6985L21.1421 19.9662H20.3203H18.6472V20.5226L19.7638 21.0791L20.3203 21.6097H19.7638H18.6472L17.5343 21.0791H16.7125H15.0653L14.5088 20.5226V19.9662V19.4097H13.687V19.9662H13.1306H12.0139L11.4575 19.4097H10.901H10.6357H10.0792H8.43198H7.5844L7.05374 19.9662L6.49728 20.5226L5.94082 21.0791H5.11535L4.55889 21.6097L4.00244 22.461L3.44598 22.9917L2.88952 23.5481H4.00244L5.11535 24.1046L5.38068 23.5481H6.49728L7.05374 24.1046L6.49728 24.661L5.94082 24.9264H5.38068L4.55889 25.4865L5.11535 26.043L5.38068 26.5994V27.1559H5.11535V27.7123L5.38068 27.9777H6.49728V28.5378L5.38068 29.0943L5.11535 29.6249L4.55889 30.1814V30.4725H5.38068L5.94082 31.029H4.55889L4.00244 30.4725H3.44598H2.88952L3.44598 30.1814L2.88952 29.0943L2.32938 28.5378V29.0943V29.6249L1.79872 30.1814H1.50759H0.420471V31.029H1.50759L1.79872 31.5596L2.32938 32.1198H3.44598V32.6762V33.2327H5.38068L5.94082 34.0545L5.38068 35.1711L4.55889 35.7275L4.00244 35.9929H4.55889V36.5493L5.11535 37.1058H5.38068V38.1929H5.11535L4.55889 39.0442H3.44598H2.88952L4.00244 39.5748H5.38068H5.94082L7.05374 40.1313H8.14086L7.5844 41.2442H7.05374L6.49728 40.6878L5.38068 41.2442H5.11535H3.44598V41.8044H5.11535H5.94082H7.05374L6.49728 42.0697L5.94082 43.1826L5.38068 43.7391H7.05374L7.5844 43.1826L8.14086 42.6261V42.0697L9.52279 41.2442H10.0792V41.8044L10.6357 42.6261L10.901 43.7391H11.4575V43.1826L12.0139 42.6261L12.5741 43.1826V43.7391L12.0139 44.2955L12.5741 45.121L13.1306 45.6774V46.2081L13.687 46.7646H14.5088H15.0653H16.1561H16.7125H17.269H17.5343H18.6472V46.2081L19.7638 45.121V44.8262V44.2955L20.3203 43.1826H21.1421L23.3458 43.7391H23.6369L25.2805 44.8262L27.7753 45.6774V46.7646V47.6121L29.4226 48.7029L30.2702 49.2594H31.3573H32.7392H35.4957H36.347L37.4341 48.7029L38.547 48.1428L39.3725 46.7646L39.929 46.2081L40.4854 45.6774H41.8637L42.4238 46.2081H43.5367L44.0674 46.7646L45.1803 47.6121L47.1187 46.7646V46.2081L47.9405 46.7646L49.0571 46.2081L50.17 46.7646L49.6135 47.321L49.0571 47.6121L48.4969 48.1428H47.6751H47.1187L46.5622 48.7029V49.2594L47.1187 50.3723V51.1941L47.6751 51.7542H48.4969L49.0571 51.1941L50.17 49.8159H50.7006V48.7029L51.5482 47.321H52.639V47.6121H54.3084L54.5737 48.7029L56.8033 48.1428H58.1815L59.2723 47.321H60.3852L61.207 47.6121H62.8801L63.4365 48.7029L64.8148 49.2594L65.9056 49.8159L68.3967 50.3723L69.5133 49.2594H70.8916L72.5388 48.7029H73.3864H75.03L76.4119 49.2594H76.9684L78.0813 49.8159L78.9068 49.2594L80.0197 49.8159L81.1068 49.2594L81.9286 48.7029H83.0452V50.3723V49.8159L84.1581 49.2594L84.7146 48.7029L84.9799 47.321H85.54L86.653 46.7646L87.7401 47.321H89.6785L90.2349 47.6121H90.7914L91.3478 48.7029L94.6645 47.6121L95.1951 48.1428L94.6645 47.321L95.1951 44.8262L94.108 43.7391L94.6645 41.8044V41.2442L95.7553 39.5748L94.6645 39.0442V37.6622L93.8169 36.5493V34.6109L95.1951 34.0545L95.7553 33.498V32.6762L96.3117 31.5596ZM96.3117 31.5596L96.8682 32.6762L96.3117 31.5596Z" stroke="#F2F2F2" stroke-width="0.368515"/>
<path d="M26.3973 54.7759V55.8925V56.449L26.6626 56.7143V57.2707H27.2191L28.332 57.8272H28.8626V58.3873H29.4228L29.7139 57.8272H30.2704H30.801H31.3575L31.9139 57.2707L32.4741 56.7143H32.7394H33.2959H33.8523H34.9652L34.4088 56.449V55.8925L34.9652 55.336H35.4959L35.7907 54.7759H36.3472L37.4343 54.2452L37.9908 53.6888H38.5472L37.9908 53.1323L36.9036 53.6888H36.3472L35.7907 54.2452H35.4959L34.4088 54.7759L33.2959 54.2452H32.4741H31.3575L30.801 53.6888L30.2704 53.1323H29.7139V53.6888V54.2452V54.7759H29.4228L28.8626 55.336L28.332 54.7759H27.7755V55.336L27.2191 54.7759H26.3973Z" fill="#F2F2F2"/>
<path d="M26.3973 54.7759V55.8925V56.449L26.6626 56.7143V57.2707H27.2191L28.332 57.8272H28.8626V58.3873H29.4228L29.7139 57.8272H30.2704H30.801H31.3575L31.9139 57.2707L32.4741 56.7143H32.7394H33.2959H33.8523H34.9652L34.4088 56.449V55.8925L34.9652 55.336H35.4959L35.7907 54.7759H36.3472L37.4343 54.2452L37.9908 53.6888H38.5472L37.9908 53.1323L36.9036 53.6888H36.3472L35.7907 54.2452H35.4959L34.4088 54.7759L33.2959 54.2452H32.4741H31.3575L30.801 53.6888L30.2704 53.1323H29.7139V53.6888V54.2452V54.7759H29.4228L28.8626 55.336L28.332 54.7759H27.7755V55.336L27.2191 54.7759H26.3973Z" fill="#212121" stroke="#F2F2F2" stroke-width="0.368515"/>
<path d="M41.0422 69.9812V69.4247L41.5986 68.8941L41.864 68.3376L43.537 67.5121L44.6241 66.9557L44.0677 66.3992L44.6241 65.2863V64.7262L45.4459 64.4608L46.5625 63.9044L47.119 63.3479V62.7915L47.9408 62.2608L49.0574 61.9697L49.6138 60.8789L49.0574 60.3224V59.7659V59.2095L48.4972 58.9442L47.9408 59.2095L47.6754 58.9442L46.5625 59.2095L46.0061 58.9442H45.4459L45.1806 58.3877V58.9442V59.2095V59.7659L44.6241 60.3224H44.0677V60.8789L42.9806 61.4095V61.9697L42.4241 62.2608L41.864 62.7915L42.4241 63.3479V63.9044L41.864 64.4608H41.5986L41.0422 64.7262V65.2863L40.4857 65.8428H39.9293V66.3992L39.3728 66.9557L38.8127 67.5121L38.5473 68.3376V68.8941L39.3728 69.4247H39.9293H40.4857V68.8941H41.0422L41.5986 69.4247L41.0422 69.9812Z" fill="#F2F2F2"/>
<path d="M41.0422 69.9812V69.4247L41.5986 68.8941L41.864 68.3376L43.537 67.5121L44.6241 66.9557L44.0677 66.3992L44.6241 65.2863V64.7262L45.4459 64.4608L46.5625 63.9044L47.119 63.3479V62.7915L47.9408 62.2608L49.0574 61.9697L49.6138 60.8789L49.0574 60.3224V59.7659V59.2095L48.4972 58.9442L47.9408 59.2095L47.6754 58.9442L46.5625 59.2095L46.0061 58.9442H45.4459L45.1806 58.3877V58.9442V59.2095V59.7659L44.6241 60.3224H44.0677V60.8789L42.9806 61.4095V61.9697L42.4241 62.2608L41.864 62.7915L42.4241 63.3479V63.9044L41.864 64.4608H41.5986L41.0422 64.7262V65.2863L40.4857 65.8428H39.9293V66.3992L39.3728 66.9557L38.8127 67.5121L38.5473 68.3376V68.8941L39.3728 69.4247H39.9293H40.4857V68.8941H41.0422L41.5986 69.4247L41.0422 69.9812Z" fill="#212121"/>
<path d="M31.9138 90.1719V84.9206L31.3574 84.0951V83.5386L30.8009 79.9309L32.474 79.1091V78.5526L32.7393 77.9925V77.4618H33.2958L33.8522 76.3489V75.5271L34.4087 74.9707V73.8541V73.5887H34.9651V73.0323L35.4958 71.9194V71.3592L35.7906 70.8286L36.9035 70.2721H37.4342L37.9906 69.981L38.5471 68.8939V68.3374V68.8939L39.3726 69.4245H39.929H40.4855V68.8939H41.0419L41.5984 69.4245L41.3073 69.7157L41.0419 69.981V70.2721V70.8286V71.9194L40.4855 71.3592V71.9194L39.3726 73.0323V71.9194L38.8124 71.3592L37.9906 71.9194L37.4342 72.4758V73.0323L36.9035 73.5887L36.3471 74.4105H36.9035L36.3471 74.9707L35.7906 76.0578L36.3471 76.3489L35.4958 77.4618H36.3471V77.9925H35.7906L34.9651 79.1091L35.4958 79.3744H36.3471H37.4342H37.9906V80.4873V81.0438V81.6039L36.9035 82.4257V82.9822L36.3471 83.5386L35.4958 84.9206V85.477L34.9651 86.5642L34.4087 87.9424L32.7393 89.6155V90.1719H31.9138Z" fill="#212121" stroke="#F2F2F2" stroke-width="0.368515"/>
<path d="M170.947 150.693L170.391 152.075L169.834 152.632V153.188V153.745V154.275L170.391 153.745H170.947V152.632V150.693Z" fill="#F2F2F2"/>
</svg>
