<svg width="18" height="18" viewBox="0 0 18 18" fill="none" xmlns="http://www.w3.org/2000/svg">
<path d="M11.4306 5.15544C11.2496 4.70313 10.982 4.34881 10.6277 4.0925C10.2734 3.83619 9.84746 3.70803 9.34991 3.70803C9.07852 3.70803 8.80306 3.75145 8.52353 3.8383C8.244 3.92529 7.99869 4.08308 7.78761 4.31165L6.80654 3.33035C7.02335 3.10193 7.30544 2.90683 7.65282 2.74505C8.0002 2.58327 8.32466 2.48263 8.62621 2.44313V0.752372H9.98315V2.41531C10.5688 2.51045 11.1063 2.73925 11.5959 3.1017C12.0853 3.46416 12.4582 3.96834 12.7145 4.61425L11.4306 5.15544ZM16.1521 17.0389L12.1821 13.0692C11.9443 13.3591 11.615 13.6003 11.194 13.7929C10.7729 13.9854 10.3693 14.0909 9.98315 14.1095V15.8005H8.62621V14.0643C7.82832 13.8879 7.17563 13.5411 6.66813 13.0239C6.16078 12.5066 5.77895 11.8432 5.52264 11.0337L6.86217 10.5014C7.04883 11.1346 7.35558 11.6774 7.78241 12.1297C8.20925 12.582 8.77698 12.8082 9.48561 12.8082C9.83826 12.8082 10.158 12.7438 10.445 12.615C10.732 12.4863 10.9841 12.3106 11.201 12.0879L0.550781 1.43763L1.50404 0.484375L17.1053 16.0857L16.1521 17.0389Z" fill="#1C1B1F"/>
</svg>
