<svg width="21" height="15" viewBox="0 0 21 15" fill="none" xmlns="http://www.w3.org/2000/svg">
<path d="M1.47118 6.61762L0.0585938 5.20504C1.43288 3.81221 3.01508 2.74489 4.8052 2.0031C6.59531 1.26145 8.46926 0.890625 10.427 0.890625C10.7599 0.890625 11.0899 0.900501 11.4169 0.920252C11.744 0.940003 12.0739 0.969554 12.4068 1.00891L11.4151 2.97128C11.2505 2.95032 11.0858 2.93464 10.9212 2.92424C10.7564 2.91383 10.5917 2.90863 10.427 2.90863C8.73839 2.90863 7.12136 3.22902 5.57595 3.8698C4.03053 4.51059 2.66228 5.42653 1.47118 6.61762ZM5.31586 10.4623L3.90328 9.02191C4.69302 8.23217 5.59653 7.61197 6.61378 7.16131C7.63089 6.7108 8.69783 6.43911 9.8146 6.34623L8.75007 8.55218C8.09829 8.69481 7.48095 8.93084 6.89806 9.26028C6.31533 9.58957 5.78793 9.99024 5.31586 10.4623ZM9.89828 14.2896C9.48184 14.1527 9.18234 13.8906 8.99975 13.5032C8.81702 13.1159 8.81845 12.7309 9.00405 12.3482L14.0141 1.79888C14.063 1.70133 14.1361 1.63521 14.2335 1.60053C14.3309 1.56571 14.4283 1.56797 14.5257 1.60732C14.629 1.64682 14.7064 1.7115 14.758 1.80136C14.8095 1.89122 14.8202 1.98779 14.7901 2.09107L11.85 13.3605C11.7469 13.7711 11.4999 14.0674 11.1089 14.2496C10.7181 14.4317 10.3146 14.445 9.89828 14.2896ZM15.5382 10.4623C15.4037 10.3336 15.2686 10.2118 15.1329 10.0971C14.9972 9.98218 14.8517 9.87083 14.6962 9.76303L15.246 7.67537C15.551 7.86911 15.8465 8.07702 16.1323 8.29911C16.4182 8.5212 16.691 8.76213 16.9508 9.02191L15.5382 10.4623ZM19.3689 6.63165C18.8749 6.16531 18.3609 5.73184 17.8267 5.33124C17.2927 4.93049 16.7247 4.57934 16.1228 4.27779L16.6168 2.26838C17.3961 2.64305 18.1363 3.07508 18.8374 3.56449C19.5385 4.0539 20.1912 4.60075 20.7955 5.20504L19.3689 6.63165Z" fill="#1C1B1F"/>
</svg>
