<svg width="33" height="33" viewBox="0 0 33 33" fill="none" xmlns="http://www.w3.org/2000/svg">
<path id="Vector" d="M14.967 1.0698C15.5342 -0.356601 17.4659 -0.356599 18.0331 1.0698L21.3806 9.48867C21.6198 10.09 22.1605 10.5009 22.7811 10.5529L31.47 11.2816C32.9421 11.405 33.5391 13.3268 32.4174 14.3318L25.7974 20.2635C25.3246 20.6873 25.118 21.3521 25.2625 21.9855L27.285 30.8548C27.6277 32.3574 26.0649 33.5452 24.8045 32.74L17.3655 27.9871C16.8342 27.6476 16.1659 27.6476 15.6346 27.9871L8.19555 32.74C6.93515 33.5452 5.37234 32.3574 5.71501 30.8548L7.73757 21.9855C7.88203 21.3521 7.67553 20.6873 7.20269 20.2635L0.582554 14.3318C-0.539086 13.3268 0.0578621 11.405 1.53003 11.2816L10.2191 10.5529C10.8397 10.5009 11.3803 10.09 11.6194 9.48867L14.967 1.0698Z" fill="#FF9500"/>
</svg>
