<svg width="52" height="54" viewBox="0 0 52 54" fill="none" xmlns="http://www.w3.org/2000/svg">
<mask id="mask0_1_9525" style="mask-type:alpha" maskUnits="userSpaceOnUse" x="-1" y="-1" width="61" height="61">
<rect x="-0.21875" y="-0.214844" width="60" height="60" fill="#D9D9D9"/>
</mask>
<g mask="url(#mask0_1_9525)">
<path d="M35.6528 21.1392C35.1528 19.8892 34.4132 18.91 33.4341 18.2017C32.4549 17.4934 31.2778 17.1392 29.9028 17.1392C29.1528 17.1392 28.3916 17.2592 27.6191 17.4992C26.8466 17.7396 26.1686 18.1757 25.5853 18.8073L22.8741 16.0955C23.4732 15.4642 24.2528 14.925 25.2128 14.478C26.1728 14.0309 27.0695 13.7528 27.9028 13.6436V8.97109H31.6528V13.5667C33.2711 13.8296 34.7568 14.4619 36.1097 15.4636C37.4622 16.4653 38.4926 17.8586 39.2009 19.6436L35.6528 21.1392ZM48.7009 53.9798L37.7297 43.0092C37.0726 43.8105 36.1624 44.4771 34.9991 45.0092C33.8353 45.5413 32.7199 45.833 31.6528 45.8842V50.5573H27.9028V45.7592C25.6978 45.2717 23.8941 44.3134 22.4916 42.8842C21.0895 41.4546 20.0343 39.6213 19.3259 37.3842L23.0278 35.913C23.5436 37.663 24.3914 39.163 25.5709 40.413C26.7505 41.663 28.3195 42.288 30.2778 42.288C31.2524 42.288 32.1361 42.11 32.9291 41.7542C33.7224 41.3984 34.4188 40.9128 35.0184 40.2973L5.58594 10.8648L8.22031 8.23047L51.3353 51.3455L48.7009 53.9798Z" fill="#1C1B1F"/>
</g>
</svg>
