<svg width="84" height="83" viewBox="0 0 84 83" fill="none" xmlns="http://www.w3.org/2000/svg">
<g id="Flag_of_the_United_States_(DoS_ECA_Color_Standard)">
<g clip-path="url(#clip0_1_44906)">
<path id="Vector" d="M-17.2319 -9.69238H158.737V82.923H-17.2319" fill="#B31942"/>
<g id="Vector_2">
<path d="M-17.2319 0.993652H158.737H-17.2319ZM158.737 15.2422H-17.2319H158.737ZM-17.2319 29.4907H158.737H-17.2319ZM158.737 43.7392H-17.2319H158.737ZM-17.2319 57.9877H158.737H-17.2319ZM158.737 72.2363H-17.2319H158.737Z" fill="black"/>
<path d="M-17.2319 0.993652H158.737M158.737 15.2422H-17.2319M-17.2319 29.4907H158.737M158.737 43.7392H-17.2319M-17.2319 57.9877H158.737M158.737 72.2363H-17.2319" stroke="white" stroke-width="8.70743"/>
</g>
<path id="Vector_3" d="M-17.2319 -9.69238H53.1558V40.1774H-17.2319" fill="#0A3161"/>
<g id="Group">
<g id="s18">
<g id="s9">
<g id="s5">
<g id="s4">
<path id="s" d="M0.378565 2.41553L2.05358 7.57069L-2.33167 4.38462H3.08879L-1.29645 7.57069L0.378565 2.41553Z" fill="white"/>
<path id="s_2" d="M0.378565 12.3896L2.05358 17.5448L-2.33167 14.3587H3.08879L-1.29645 17.5448L0.378565 12.3896Z" fill="white"/>
<path id="s_3" d="M0.378565 22.3638L2.05358 27.5189L-2.33167 24.3329H3.08879L-1.29645 27.5189L0.378565 22.3638Z" fill="white"/>
</g>
<path id="s_4" d="M0.377344 32.3379L2.05236 37.4931L-2.33289 34.307H3.08757L-1.29767 37.4931L0.377344 32.3379Z" fill="white"/>
</g>
<g id="s4_2">
<path id="s_5" d="M6.24758 -2.57031L7.9226 2.58485L3.53735 -0.601215H8.95781L4.57257 2.58485L6.24758 -2.57031Z" fill="white"/>
<path id="s_6" d="M6.24758 7.40332L7.9226 12.5585L3.53735 9.37242H8.95781L4.57257 12.5585L6.24758 7.40332Z" fill="white"/>
<path id="s_7" d="M6.24758 17.3774L7.9226 22.5326L3.53735 19.3465H8.95781L4.57257 22.5326L6.24758 17.3774Z" fill="white"/>
<path id="s_8" d="M6.24758 27.3516L7.9226 32.5067L3.53735 29.3207H8.95781L4.57257 32.5067L6.24758 27.3516Z" fill="white"/>
</g>
</g>
</g>
<g id="s18_2">
<g id="s9_2">
<g id="s5_2">
<g id="s4_3">
<path id="s_9" d="M12.0739 2.41553L13.7489 7.57069L9.36365 4.38462H14.7841L10.3989 7.57069L12.0739 2.41553Z" fill="white"/>
<path id="s_10" d="M12.0739 12.3901L13.7489 17.5453L9.36365 14.3592H14.7841L10.3989 17.5453L12.0739 12.3901Z" fill="white"/>
<path id="s_11" d="M12.0739 22.3638L13.7489 27.5189L9.36365 24.3329H14.7841L10.3989 27.5189L12.0739 22.3638Z" fill="white"/>
</g>
<path id="s_12" d="M12.0733 32.3379L13.7483 37.4931L9.36304 34.307H14.7835L10.3983 37.4931L12.0733 32.3379Z" fill="white"/>
</g>
<g id="s4_4">
<path id="s_13" d="M17.9615 -2.57031L19.6365 2.58485L15.2512 -0.601215H20.6717L16.2864 2.58485L17.9615 -2.57031Z" fill="white"/>
<path id="s_14" d="M17.9615 7.40332L19.6365 12.5585L15.2512 9.37242H20.6717L16.2864 12.5585L17.9615 7.40332Z" fill="white"/>
<path id="s_15" d="M17.9615 17.3774L19.6365 22.5326L15.2512 19.3465H20.6717L16.2864 22.5326L17.9615 17.3774Z" fill="white"/>
<path id="s_16" d="M17.9615 27.3516L19.6365 32.5067L15.2512 29.3207H20.6717L16.2864 32.5067L17.9615 27.3516Z" fill="white"/>
</g>
</g>
<g id="s9_3">
<g id="s5_3">
<g id="s4_5">
<path id="s_17" d="M23.8282 2.41553L25.5032 7.57069L21.1179 4.38462H26.5384L22.1531 7.57069L23.8282 2.41553Z" fill="white"/>
<path id="s_18" d="M23.8282 12.3901L25.5032 17.5453L21.1179 14.3592H26.5384L22.1531 17.5453L23.8282 12.3901Z" fill="white"/>
<path id="s_19" d="M23.8282 22.3638L25.5032 27.5189L21.1179 24.3329H26.5384L22.1531 27.5189L23.8282 22.3638Z" fill="white"/>
</g>
<path id="s_20" d="M23.8245 32.3379L25.4995 37.4931L21.1143 34.307H26.5347L22.1495 37.4931L23.8245 32.3379Z" fill="white"/>
</g>
<g id="s4_6">
<path id="s_21" d="M29.6947 -2.57031L31.3697 2.58485L26.9845 -0.601215H32.405L28.0197 2.58485L29.6947 -2.57031Z" fill="white"/>
<path id="s_22" d="M29.6947 7.40332L31.3697 12.5585L26.9845 9.37242H32.405L28.0197 12.5585L29.6947 7.40332Z" fill="white"/>
<path id="s_23" d="M29.6947 17.3774L31.3697 22.5326L26.9845 19.3465H32.405L28.0197 22.5326L29.6947 17.3774Z" fill="white"/>
<path id="s_24" d="M29.6947 27.3516L31.3697 32.5067L26.9845 29.3207H32.405L28.0197 32.5067L29.6947 27.3516Z" fill="white"/>
</g>
</g>
</g>
<g id="s9_4">
<g id="s5_4">
<g id="s4_7">
<path id="s_25" d="M35.5581 2.41553L37.2331 7.57069L32.8479 4.38462H38.2684L33.8831 7.57069L35.5581 2.41553Z" fill="white"/>
<path id="s_26" d="M35.5581 12.3896L37.2331 17.5448L32.8479 14.3587H38.2684L33.8831 17.5448L35.5581 12.3896Z" fill="white"/>
<path id="s_27" d="M35.5581 22.3638L37.2331 27.5189L32.8479 24.3329H38.2684L33.8831 27.5189L35.5581 22.3638Z" fill="white"/>
</g>
<path id="s_28" d="M35.5594 32.3384L37.2344 37.4935L32.8491 34.3075H38.2696L33.8843 37.4935L35.5594 32.3384Z" fill="white"/>
</g>
<g id="s4_8">
<path id="s_29" d="M41.4295 -2.56982L43.1045 2.58534L38.7192 -0.600727H44.1397L39.7545 2.58534L41.4295 -2.56982Z" fill="white"/>
<path id="s_30" d="M41.4295 7.40381L43.1045 12.559L38.7192 9.37291H44.1397L39.7545 12.559L41.4295 7.40381Z" fill="white"/>
<path id="s_31" d="M41.4295 17.3784L43.1045 22.5336L38.7192 19.3475H44.1397L39.7545 22.5336L41.4295 17.3784Z" fill="white"/>
<path id="s_32" d="M41.4295 27.3521L43.1045 32.5072L38.7192 29.3211H44.1397L39.7545 32.5072L41.4295 27.3521Z" fill="white"/>
</g>
</g>
<g id="s5_5">
<g id="s4_9">
<path id="s_33" d="M47.2818 2.41699L48.9568 7.57216L44.5715 4.38609H49.992L45.6067 7.57216L47.2818 2.41699Z" fill="white"/>
<path id="s_34" d="M47.2818 12.3916L48.9568 17.5468L44.5715 14.3607H49.992L45.6067 17.5468L47.2818 12.3916Z" fill="white"/>
<path id="s_35" d="M47.2818 22.3652L48.9568 27.5204L44.5715 24.3343H49.992L45.6067 27.5204L47.2818 22.3652Z" fill="white"/>
</g>
<path id="s_36" d="M47.2818 32.3394L48.9568 37.4945L44.5715 34.3085H49.992L45.6067 37.4945L47.2818 32.3394Z" fill="white"/>
</g>
</g>
</g>
</g>
<defs>
<clipPath id="clip0_1_44906">
<rect x="-17.2313" y="-9.69238" width="175.969" height="92.6154" rx="10.7692" fill="white"/>
</clipPath>
</defs>
</svg>
