<svg width="30" height="30" viewBox="0 0 30 30" fill="none" xmlns="http://www.w3.org/2000/svg">
<path d="M27.6686 30L17.1686 19.5C16.3353 20.1667 15.377 20.6944 14.2936 21.0833C13.2103 21.4722 12.0575 21.6667 10.8353 21.6667C7.80751 21.6667 5.24501 20.6181 3.14779 18.5208C1.05056 16.4236 0.00195312 13.8611 0.00195312 10.8333C0.00195312 7.80556 1.05056 5.24306 3.14779 3.14583C5.24501 1.04861 7.80751 0 10.8353 0C13.8631 0 16.4256 1.04861 18.5228 3.14583C20.62 5.24306 21.6686 7.80556 21.6686 10.8333C21.6686 12.0556 21.4742 13.2083 21.0853 14.2917C20.6964 15.375 20.1686 16.3333 19.502 17.1667L30.002 27.6667L27.6686 30ZM10.8353 18.3333C12.9186 18.3333 14.6895 17.6042 16.1478 16.1458C17.6061 14.6875 18.3353 12.9167 18.3353 10.8333C18.3353 8.75 17.6061 6.97917 16.1478 5.52083C14.6895 4.0625 12.9186 3.33333 10.8353 3.33333C8.75195 3.33333 6.98112 4.0625 5.52279 5.52083C4.06445 6.97917 3.33529 8.75 3.33529 10.8333C3.33529 12.9167 4.06445 14.6875 5.52279 16.1458C6.98112 17.6042 8.75195 18.3333 10.8353 18.3333Z" fill="#666666"/>
</svg>
