<svg width="26" height="26" viewBox="0 0 26 26" fill="none" xmlns="http://www.w3.org/2000/svg">
<path id="Vector" fill-rule="evenodd" clip-rule="evenodd" d="M22.5347 0.258789H3.29332C1.52472 0.258789 0.0864258 1.69708 0.0864258 3.46569V22.7071C0.0864258 24.4757 1.52472 25.914 3.29332 25.914H12.914V17.095H9.70712V13.0864H12.914V9.87948C12.914 8.6037 13.4208 7.38017 14.3229 6.47805C15.225 5.57594 16.4486 5.06913 17.7244 5.06913H20.9313V9.07775H19.3278C18.4427 9.07775 17.7244 8.99438 17.7244 9.87948V13.0864H21.733L20.1295 17.095H17.7244V25.914H22.5347C24.3033 25.914 25.7416 24.4757 25.7416 22.7071V3.46569C25.7416 1.69708 24.3033 0.258789 22.5347 0.258789Z" fill="#252525"/>
</svg>
