<svg width="27" height="26" viewBox="0 0 27 26" fill="none" xmlns="http://www.w3.org/2000/svg">
<g id="Vector">
<path d="M13.5 2.57703C16.9 2.57703 17.3637 2.57703 18.7546 2.57703C19.991 2.57703 20.6092 2.88613 21.0729 3.04068C21.6911 3.34977 22.1547 3.50432 22.6184 3.96797C23.082 4.43162 23.3911 4.89527 23.5457 5.51346C23.7002 5.97711 23.8547 6.59531 24.0093 7.8317C24.0093 9.22265 24.0093 9.53174 24.0093 13.0864C24.0093 16.641 24.0093 16.9501 24.0093 18.3411C24.0093 19.5774 23.7002 20.1956 23.5457 20.6593C23.2366 21.2775 23.082 21.7411 22.6184 22.2048C22.1547 22.6684 21.6911 22.9775 21.0729 23.1321C20.6092 23.2866 19.991 23.4412 18.7546 23.5957C17.3637 23.5957 17.0546 23.5957 13.5 23.5957C9.94532 23.5957 9.63622 23.5957 8.24528 23.5957C7.00888 23.5957 6.39069 23.2866 5.92704 23.1321C5.30884 22.823 4.84519 22.6684 4.38155 22.2048C3.9179 21.7411 3.6088 21.2775 3.45425 20.6593C3.2997 20.1956 3.14515 19.5774 2.9906 18.3411C2.9906 16.9501 2.9906 16.641 2.9906 13.0864C2.9906 9.53174 2.9906 9.22265 2.9906 7.8317C2.9906 6.59531 3.2997 5.97711 3.45425 5.51346C3.76335 4.89527 3.9179 4.43162 4.38155 3.96797C4.84519 3.50432 5.30884 3.19523 5.92704 3.04068C6.39069 2.88613 7.00888 2.73158 8.24528 2.57703C9.63622 2.57703 10.0999 2.57703 13.5 2.57703ZM13.5 0.258789C9.94532 0.258789 9.63622 0.258789 8.24528 0.258789C6.85433 0.258789 5.92704 0.567888 5.15429 0.876987C4.38155 1.18609 3.6088 1.64973 2.83605 2.42248C2.06331 3.19523 1.75421 3.81342 1.29056 4.74072C0.981463 5.51346 0.826913 6.44076 0.672363 7.8317C0.672363 9.22265 0.672363 9.68629 0.672363 13.0864C0.672363 16.641 0.672363 16.9501 0.672363 18.3411C0.672363 19.732 0.981463 20.6593 1.29056 21.432C1.59966 22.2048 2.06331 22.9775 2.83605 23.7503C3.6088 24.523 4.227 24.8321 5.15429 25.2958C5.92704 25.6049 6.85433 25.7594 8.24528 25.914C9.63622 25.914 10.0999 25.914 13.5 25.914C16.9 25.914 17.3637 25.914 18.7546 25.914C20.1456 25.914 21.0729 25.6049 21.8456 25.2958C22.6184 24.9867 23.3911 24.523 24.1638 23.7503C24.9366 22.9775 25.2457 22.3593 25.7093 21.432C26.0184 20.6593 26.173 19.732 26.3275 18.3411C26.3275 16.9501 26.3275 16.4865 26.3275 13.0864C26.3275 9.68629 26.3275 9.22265 26.3275 7.8317C26.3275 6.44076 26.0184 5.51346 25.7093 4.74072C25.4002 3.96797 24.9366 3.19523 24.1638 2.42248C23.3911 1.64973 22.7729 1.34063 21.8456 0.876987C21.0729 0.567888 20.1456 0.413338 18.7546 0.258789C17.3637 0.258789 17.0546 0.258789 13.5 0.258789Z" fill="#252525"/>
<path d="M13.5 6.44076C9.79077 6.44076 6.85433 9.3772 6.85433 13.0864C6.85433 16.7956 9.79077 19.732 13.5 19.732C17.2091 19.732 20.1456 16.7956 20.1456 13.0864C20.1456 9.3772 17.2091 6.44076 13.5 6.44076ZM13.5 17.4138C11.1817 17.4138 9.17257 15.5592 9.17257 13.0864C9.17257 10.7681 11.0272 8.759 13.5 8.759C15.8182 8.759 17.8273 10.6136 17.8273 13.0864C17.8273 15.4046 15.8182 17.4138 13.5 17.4138Z" fill="#252525"/>
<path d="M20.3001 7.8317C21.1537 7.8317 21.8456 7.13976 21.8456 6.28621C21.8456 5.43266 21.1537 4.74072 20.3001 4.74072C19.4466 4.74072 18.7546 5.43266 18.7546 6.28621C18.7546 7.13976 19.4466 7.8317 20.3001 7.8317Z" fill="#252525"/>
</g>
</svg>
