<svg width="48" height="38" viewBox="0 0 48 38" fill="none" xmlns="http://www.w3.org/2000/svg">
<path d="M20.5133 27.3656C21.4012 28.2531 22.5447 28.6746 23.9439 28.63C25.3427 28.585 26.3691 28.0802 27.0233 27.1156L40.5902 7.46188L20.8883 20.9806C19.9079 21.6348 19.3783 22.6404 19.2995 23.9975C19.2212 25.355 19.6258 26.4777 20.5133 27.3656ZM24.0039 0.25C26.3822 0.25 28.6106 0.561668 30.6889 1.185C32.7677 1.80833 34.7749 2.75146 36.7108 4.01437L33.1864 6.29313C31.7635 5.53688 30.2885 4.96563 28.7614 4.57938C27.2339 4.19313 25.6481 4 24.0039 4C18.4622 4 13.7435 5.94792 9.84766 9.84375C5.95182 13.7396 4.00391 18.4583 4.00391 24C4.00391 25.75 4.24349 27.4792 4.72266 29.1875C5.20182 30.8958 5.87891 32.5 6.75391 34H41.2539C42.2122 32.4167 42.9102 30.7708 43.3477 29.0625C43.7852 27.3542 44.0039 25.5833 44.0039 23.75C44.0039 22.25 43.8189 20.7317 43.4489 19.195C43.0785 17.6579 42.507 16.1988 41.7345 14.8175L44.0133 11.2931C45.2474 13.3156 46.1731 15.339 46.7902 17.3631C47.4068 19.3873 47.7281 21.4906 47.7539 23.6731C47.7793 25.936 47.5245 28.0746 46.9895 30.0888C46.4541 32.1033 45.6481 34.0737 44.5714 36C44.241 36.5417 43.7762 36.9688 43.177 37.2812C42.5774 37.5938 41.9364 37.75 41.2539 37.75H6.75391C6.08724 37.75 5.45828 37.5898 4.86703 37.2694C4.27578 36.9485 3.79891 36.4933 3.43641 35.9038C2.48141 34.2371 1.71224 32.4198 1.12891 30.4519C0.545573 28.484 0.253906 26.3333 0.253906 24C0.253906 20.7342 0.87349 17.664 2.11266 14.7894C3.35182 11.9148 5.04328 9.39709 7.18703 7.23625C9.3312 5.07542 11.8518 3.37083 14.7489 2.1225C17.6464 0.874168 20.7314 0.25 24.0039 0.25Z" fill="#1C1B1F"/>
</svg>
