<svg width="193" height="33" viewBox="0 0 193 33" fill="none" xmlns="http://www.w3.org/2000/svg">
<g clip-path="url(#clip0_1_394)">
<path d="M14.965 1.0698C15.5322 -0.356601 17.464 -0.356599 18.0311 1.0698L21.3786 9.48867C21.6179 10.09 22.1585 10.5009 22.7791 10.5529L31.468 11.2816C32.9402 11.405 33.5371 13.3268 32.4155 14.3318L25.7955 20.2635C25.3227 20.6873 25.1161 21.3521 25.2605 21.9855L27.2831 30.8548C27.6257 32.3574 26.063 33.5452 24.8026 32.74L17.3636 27.9871C16.8322 27.6476 16.164 27.6476 15.6326 27.9871L8.1936 32.74C6.9332 33.5452 5.37039 32.3574 5.71306 30.8548L7.73561 21.9855C7.88008 21.3521 7.67357 20.6873 7.20074 20.2635L0.580601 14.3318C-0.541039 13.3268 0.055909 11.405 1.52808 11.2816L10.2171 10.5529C10.8377 10.5009 11.3784 10.09 11.6175 9.48867L14.965 1.0698Z" fill="#FF9500"/>
<path d="M54.9533 1.0698C55.5205 -0.356601 57.4522 -0.356599 58.0194 1.0698L61.3669 9.48867C61.6061 10.09 62.1468 10.5009 62.7674 10.5529L71.4563 11.2816C72.9285 11.405 73.5254 13.3268 72.4038 14.3318L65.7838 20.2635C65.311 20.6873 65.1043 21.3521 65.2488 21.9855L67.2713 30.8548C67.614 32.3574 66.0513 33.5452 64.7908 32.74L57.3519 27.9871C56.8205 27.6476 56.1522 27.6476 55.6209 27.9871L48.1819 32.74C46.9215 33.5452 45.3587 32.3574 45.7013 30.8548L47.7239 21.9855C47.8684 21.3521 47.6619 20.6873 47.189 20.2635L40.5689 14.3318C39.4472 13.3268 40.0442 11.405 41.5164 11.2816L50.2054 10.5529C50.826 10.5009 51.3667 10.09 51.6058 9.48867L54.9533 1.0698Z" fill="#FF9500"/>
<path d="M94.9416 1.0698C95.5088 -0.356601 97.4405 -0.356599 98.0077 1.0698L101.355 9.48867C101.594 10.09 102.135 10.5009 102.756 10.5529L111.445 11.2816C112.917 11.405 113.514 13.3268 112.392 14.3318L105.772 20.2635C105.299 20.6873 105.093 21.3521 105.237 21.9855L107.26 30.8548C107.602 32.3574 106.04 33.5452 104.779 32.74L97.3401 27.9871C96.8088 27.6476 96.1405 27.6476 95.6092 27.9871L88.1702 32.74C86.9098 33.5452 85.3469 32.3574 85.6896 30.8548L87.7122 21.9855C87.8566 21.3521 87.6501 20.6873 87.1773 20.2635L80.5572 14.3318C79.4355 13.3268 80.0325 11.405 81.5046 11.2816L90.1937 10.5529C90.8143 10.5009 91.3549 10.09 91.594 9.48867L94.9416 1.0698Z" fill="#FF9500"/>
<path d="M134.93 1.0698C135.497 -0.356601 137.429 -0.356599 137.996 1.0698L141.343 9.48867C141.583 10.09 142.123 10.5009 142.744 10.5529L151.433 11.2816C152.905 11.405 153.502 13.3268 152.38 14.3318L145.76 20.2635C145.288 20.6873 145.081 21.3521 145.225 21.9855L147.248 30.8548C147.591 32.3574 146.028 33.5452 144.767 32.74L137.328 27.9871C136.797 27.6476 136.129 27.6476 135.597 27.9871L128.158 32.74C126.898 33.5452 125.335 32.3574 125.678 30.8548L127.7 21.9855C127.845 21.3521 127.638 20.6873 127.166 20.2635L120.545 14.3318C119.424 13.3268 120.021 11.405 121.493 11.2816L130.182 10.5529C130.803 10.5009 131.343 10.09 131.582 9.48867L134.93 1.0698Z" fill="#FF9500"/>
<path d="M174.918 1.0698C175.485 -0.356601 177.417 -0.356599 177.984 1.0698L181.332 9.48867C181.571 10.09 182.112 10.5009 182.732 10.5529L191.421 11.2816C192.893 11.405 193.49 13.3268 192.369 14.3318L185.749 20.2635C185.276 20.6873 185.069 21.3521 185.214 21.9855L187.236 30.8548C187.579 32.3574 186.016 33.5452 184.756 32.74L177.317 27.9871C176.785 27.6476 176.117 27.6476 175.586 27.9871L168.147 32.74C166.886 33.5452 165.324 32.3574 165.666 30.8548L167.689 21.9855C167.833 21.3521 167.627 20.6873 167.154 20.2635L160.534 14.3318C159.412 13.3268 160.009 11.405 161.481 11.2816L170.17 10.5529C170.791 10.5009 171.332 10.09 171.571 9.48867L174.918 1.0698Z" fill="#FF9500"/>
</g>
<defs>
<clipPath id="clip0_1_394">
<rect width="192.953" height="33" fill="white" transform="translate(-0.00195312)"/>
</clipPath>
</defs>
</svg>
