<svg width="23" height="23" viewBox="0 0 23 23" fill="none" xmlns="http://www.w3.org/2000/svg">
<path d="M2.42395 13.4823C1.81574 13.4823 1.29508 13.2657 0.861957 12.8326C0.428839 12.3995 0.21228 11.8788 0.21228 11.2706C0.21228 10.6624 0.428839 10.1417 0.861957 9.70862C1.29508 9.27551 1.81574 9.05895 2.42395 9.05895C3.03216 9.05895 3.55282 9.27551 3.98594 9.70862C4.41905 10.1417 4.63561 10.6624 4.63561 11.2706C4.63561 11.8788 4.41905 12.3995 3.98594 12.8326C3.55282 13.2657 3.03216 13.4823 2.42395 13.4823ZM4.24857 19.7855L2.70041 18.2374L7.51078 13.427L9.05895 14.9752L4.24857 19.7855ZM7.56607 9.05895L2.7557 4.24857L4.30386 2.70041L9.11424 7.51078L7.56607 9.05895ZM11.2706 22.3289C10.6624 22.3289 10.1417 22.1124 9.70862 21.6793C9.27551 21.2462 9.05895 20.7255 9.05895 20.1173C9.05895 19.5091 9.27551 18.9884 9.70862 18.5553C10.1417 18.1222 10.6624 17.9056 11.2706 17.9056C11.8788 17.9056 12.3995 18.1222 12.8326 18.5553C13.2657 18.9884 13.4823 19.5091 13.4823 20.1173C13.4823 20.7255 13.2657 21.2462 12.8326 21.6793C12.3995 22.1124 11.8788 22.3289 11.2706 22.3289ZM11.2706 4.63561C10.6624 4.63561 10.1417 4.41905 9.70862 3.98594C9.27551 3.55282 9.05895 3.03216 9.05895 2.42395C9.05895 1.81574 9.27551 1.29508 9.70862 0.861957C10.1417 0.428839 10.6624 0.21228 11.2706 0.21228C11.8788 0.21228 12.3995 0.428839 12.8326 0.861957C13.2657 1.29508 13.4823 1.81574 13.4823 2.42395C13.4823 3.03216 13.2657 3.55282 12.8326 3.98594C12.3995 4.41905 11.8788 4.63561 11.2706 4.63561ZM14.9752 9.11424L13.427 7.51078L18.2927 2.70041L19.8408 4.24857L14.9752 9.11424ZM18.2927 19.7855L13.4823 14.9752L15.0304 13.427L19.8408 18.2374L18.2927 19.7855ZM20.1173 13.4823C19.5091 13.4823 18.9884 13.2657 18.5553 12.8326C18.1222 12.3995 17.9056 11.8788 17.9056 11.2706C17.9056 10.6624 18.1222 10.1417 18.5553 9.70862C18.9884 9.27551 19.5091 9.05895 20.1173 9.05895C20.7255 9.05895 21.2462 9.27551 21.6793 9.70862C22.1124 10.1417 22.3289 10.6624 22.3289 11.2706C22.3289 11.8788 22.1124 12.3995 21.6793 12.8326C21.2462 13.2657 20.7255 13.4823 20.1173 13.4823Z" fill="#1C1B1F"/>
</svg>
