<svg width="393" height="340" viewBox="0 0 393 340" fill="none" xmlns="http://www.w3.org/2000/svg">
<g opacity="0.2">
<path d="M-12.5134 340C-63.2609 340 -100.382 244.629 -103.721 178.422C-108.255 87.9938 -56.3861 23.5199 -33.8645 0L-11.5894 21.2331C-31.3512 41.876 -76.8871 98.3706 -72.9446 176.885C-69.4949 245.478 -32.8296 309.263 -12.5011 309.263C-12.4395 309.263 -12.3779 309.263 -12.3163 309.263C-5.51546 309.128 2.98556 299.648 11.6098 282.571C21.6385 262.703 30.7925 234.818 39.6509 207.843C60.8911 143.136 80.9486 82.0308 123.614 79.2768C143.388 77.9981 162.25 89.8503 181.273 115.509C197.326 137.161 214.181 169.889 231.565 213.13C241.421 186.881 258.201 156.931 286.797 130.325C323.548 96.1329 364.156 82.1538 391.754 76.449L398 106.547C374.259 111.452 339.331 123.464 307.803 152.8C265.125 192.499 253.064 241.039 249.663 266.44C248.727 273.485 243.06 278.969 235.988 279.694C228.903 280.432 222.25 276.215 219.873 269.514C197.363 205.778 176.049 160.115 156.522 133.78C144.731 117.882 133.754 109.411 125.61 109.94C117.294 110.481 107.795 120.796 98.1724 139.779C87.5154 160.791 78.0657 189.573 68.9363 217.396C48.3737 280.026 28.9568 339.189 -11.7003 339.975C-11.959 339.975 -12.23 339.975 -12.4888 339.975L-12.5134 340Z" fill="#FC9706" fill-opacity="0.3"/>
<path d="M-12.5134 340C-63.2609 340 -100.382 244.629 -103.721 178.422C-108.255 87.9938 -56.3861 23.5199 -33.8645 0L-11.5894 21.2331C-31.3512 41.876 -76.8871 98.3706 -72.9446 176.885C-69.4949 245.478 -32.8296 309.263 -12.5011 309.263C-12.4395 309.263 -12.3779 309.263 -12.3163 309.263C-5.51546 309.128 2.98556 299.648 11.6098 282.571C21.6385 262.703 30.7925 234.818 39.6509 207.843C60.8911 143.136 80.9486 82.0308 123.614 79.2768C143.388 77.9981 162.25 89.8503 181.273 115.509C197.326 137.161 214.181 169.889 231.565 213.13C241.421 186.881 258.201 156.931 286.797 130.325C323.548 96.1329 364.156 82.1538 391.754 76.449L398 106.547C374.259 111.452 339.331 123.464 307.803 152.8C265.125 192.499 253.064 241.039 249.663 266.44C248.727 273.485 243.06 278.969 235.988 279.694C228.903 280.432 222.25 276.215 219.873 269.514C197.363 205.778 176.049 160.115 156.522 133.78C144.731 117.882 133.754 109.411 125.61 109.94C117.294 110.481 107.795 120.796 98.1724 139.779C87.5154 160.791 78.0657 189.573 68.9363 217.396C48.3737 280.026 28.9568 339.189 -11.7003 339.975C-11.959 339.975 -12.23 339.975 -12.4888 339.975L-12.5134 340Z" fill="url(#paint0_linear_2_79)" fill-opacity="0.5"/>
</g>
<defs>
<linearGradient id="paint0_linear_2_79" x1="-301.732" y1="-281.809" x2="195.693" y2="698.774" gradientUnits="userSpaceOnUse">
<stop stop-color="#FFD980" stop-opacity="0.7"/>
<stop offset="0.341273" stop-color="#FFB300" stop-opacity="0.77"/>
<stop offset="0.614916" stop-color="#DAF6F4" stop-opacity="0.9"/>
<stop offset="0.92" stop-color="#7FDBD3" stop-opacity="0.74"/>
</linearGradient>
</defs>
</svg>
