<svg width="20" height="20" viewBox="0 0 20 20" fill="none" xmlns="http://www.w3.org/2000/svg">
<path d="M10 20C8.83333 20 7.73458 19.8175 6.70375 19.4525C5.67208 19.0883 4.72917 18.5729 3.875 17.9062L2.125 19.625C1.89583 19.8542 1.60417 19.9688 1.25 19.9688C0.895833 19.9688 0.604167 19.8542 0.375 19.625C0.145834 19.3958 0.0312501 19.1042 0.0312501 18.75C0.0312501 18.3958 0.145834 18.1042 0.375 17.875L2.09375 16.1563C1.42708 15.3021 0.911667 14.3542 0.5475 13.3125C0.1825 12.2708 0 11.1667 0 10C0 7.20833 0.96875 4.84375 2.90625 2.90625C4.84375 0.96875 7.20833 0 10 0H20V10C20 12.7917 19.0312 15.1563 17.0938 17.0938C15.1562 19.0313 12.7917 20 10 20ZM10 17.5C12.0833 17.5 13.8542 16.7708 15.3125 15.3125C16.7708 13.8542 17.5 12.0833 17.5 10V2.5H10C7.91667 2.5 6.14583 3.22917 4.6875 4.6875C3.22917 6.14583 2.5 7.91667 2.5 10C2.5 10.8125 2.625 11.5883 2.875 12.3275C3.125 13.0675 3.46875 13.7396 3.90625 14.3438L10.375 7.875C10.6042 7.64583 10.8958 7.53125 11.25 7.53125C11.6042 7.53125 11.8958 7.64583 12.125 7.875C12.375 8.125 12.5 8.42167 12.5 8.765C12.5 9.10917 12.375 9.40625 12.125 9.65625L5.65625 16.125C6.26042 16.5625 6.93208 16.9008 7.67125 17.14C8.41125 17.38 9.1875 17.5 10 17.5Z" fill="#2EC4B6"/>
</svg>
